<?xml version="1.0" encoding="utf-8"?>
<!-- Generator: Adobe Illustrator 27.5.0, SVG Export Plug-In . SVG Version: 6.00 Build 0)  -->
<svg version="1.1" xmlns="http://www.w3.org/2000/svg" xmlns:xlink="http://www.w3.org/1999/xlink" x="0px" y="0px"
	 viewBox="0 0 500 500" style="enable-background:new 0 0 500 500;" xml:space="preserve">
<g id="BACKGROUNDS">
	<linearGradient id="SVGID_1_" gradientUnits="userSpaceOnUse" x1="250" y1="-119.3278" x2="250" y2="552.0872">
		<stop  offset="0" style="stop-color:#FFFFFF"/>
		<stop  offset="0.4171" style="stop-color:#EEF6FD"/>
		<stop  offset="1" style="stop-color:#D7E9FD"/>
	</linearGradient>
	<rect y="0.233" style="fill:url(#SVGID_1_);" width="500" height="500"/>
</g>
<g id="OBJECTS">
	<g>
		
			<linearGradient id="SVGID_00000116956236883717601700000015296527135288223876_" gradientUnits="userSpaceOnUse" x1="256.0564" y1="31.5884" x2="256.0564" y2="419.2068">
			<stop  offset="0" style="stop-color:#D5E7FB"/>
			<stop  offset="0.2449" style="stop-color:#D1E5FB"/>
			<stop  offset="0.5124" style="stop-color:#C3DEFB"/>
			<stop  offset="0.7896" style="stop-color:#AED4FC"/>
			<stop  offset="1" style="stop-color:#98C9FC"/>
		</linearGradient>
		<path style="fill:url(#SVGID_00000116956236883717601700000015296527135288223876_);" d="M80.935,430.547h302.412
			c19.74-23.38,72.168-92.773,36.112-132.376c-43.833-48.144-79.761-70.28-58.923-114.182
			c20.839-43.903-33.44-118.583-114.086-117.171C165.804,68.23,78.139,169.778,108.319,251.22
			C135.851,325.517,73.435,391.592,80.935,430.547z"/>
		
			<linearGradient id="SVGID_00000095322672120109239480000004561861781893093533_" gradientUnits="userSpaceOnUse" x1="287.7028" y1="74.8962" x2="281.7194" y2="123.7083">
			<stop  offset="0" style="stop-color:#FFFFFF"/>
			<stop  offset="1" style="stop-color:#FFFFFF;stop-opacity:0"/>
		</linearGradient>
		<path style="opacity:0.8;fill:url(#SVGID_00000095322672120109239480000004561861781893093533_);" d="M338.918,120.126
			c0.278,0.612-113.52,0-113.52,0s5.563-12.754,26.118-11.836c0,0,8.621-21.97,26.522-22.22
			c17.901-0.25,22.377,15.602,22.377,15.602s19.393-1.278,23.371,12.182C323.785,113.854,335.652,112.938,338.918,120.126z"/>
		
			<linearGradient id="SVGID_00000008119622648814688060000013681755579226490808_" gradientUnits="userSpaceOnUse" x1="159.1938" y1="159.2782" x2="327.2421" y2="159.2782">
			<stop  offset="0" style="stop-color:#72B2F9"/>
			<stop  offset="1" style="stop-color:#9BC8F9"/>
		</linearGradient>
		
			<ellipse style="fill:none;stroke:url(#SVGID_00000008119622648814688060000013681755579226490808_);stroke-width:1.1339;stroke-linecap:round;stroke-miterlimit:10;stroke-dasharray:3.7648;" cx="243.218" cy="159.278" rx="83.457" ry="70.811"/>
		
			<linearGradient id="SVGID_00000122693439057665243040000013031508005969650322_" gradientUnits="userSpaceOnUse" x1="67.8556" y1="442.4866" x2="429.461" y2="419.8863">
			<stop  offset="0" style="stop-color:#94A744"/>
			<stop  offset="0.3889" style="stop-color:#9BAF4A"/>
			<stop  offset="0.9879" style="stop-color:#B0C45A"/>
			<stop  offset="1" style="stop-color:#B0C55A"/>
		</linearGradient>
		
			<ellipse style="fill:url(#SVGID_00000122693439057665243040000013031508005969650322_);" cx="248.268" cy="431.211" rx="189.466" ry="17.65"/>
		
			<linearGradient id="SVGID_00000086654672512228134080000010288433496976457382_" gradientUnits="userSpaceOnUse" x1="10765.083" y1="3787.543" x2="10772.3516" y2="3711.6782" gradientTransform="matrix(-0.8665 -0.4992 -0.4256 0.7386 11309.8477 2996.9236)">
			<stop  offset="0" style="stop-color:#94A744"/>
			<stop  offset="0.3889" style="stop-color:#9BAF4A"/>
			<stop  offset="0.9879" style="stop-color:#B0C45A"/>
			<stop  offset="1" style="stop-color:#B0C55A"/>
		</linearGradient>
		<path style="fill:url(#SVGID_00000086654672512228134080000010288433496976457382_);" d="M407.78,350.535
			c0,0-3.332,61.081-45.146,74.056C362.634,424.591,350.002,389.797,407.78,350.535z"/>
		
			<linearGradient id="SVGID_00000072240952096325809040000006413004474932401056_" gradientUnits="userSpaceOnUse" x1="403.4237" y1="301.3315" x2="403.4237" y2="337.545">
			<stop  offset="0" style="stop-color:#FFFFFF"/>
			<stop  offset="1" style="stop-color:#FFFFFF;stop-opacity:0"/>
		</linearGradient>
		<path style="opacity:0.8;fill:url(#SVGID_00000072240952096325809040000006413004474932401056_);" d="M424.393,304.621
			c-15.665,2.651-23.227,21.919-23.227,21.919c-20.555-0.918-26.118,11.836-26.118,11.836s28.12,0.151,56.37,0.228
			C432.687,326.487,430.898,314.813,424.393,304.621z"/>
		
			<linearGradient id="SVGID_00000086680971272514546800000002883576894258357674_" gradientUnits="userSpaceOnUse" x1="1025.137" y1="-2282.2529" x2="1061.1384" y2="-2193.9824" gradientTransform="matrix(0.8665 -0.4992 0.4992 0.8665 293.0481 2853.9561)">
			<stop  offset="0" style="stop-color:#94A744"/>
			<stop  offset="1" style="stop-color:#738034"/>
		</linearGradient>
		<path style="fill:url(#SVGID_00000086680971272514546800000002883576894258357674_);" d="M41.692,365.069
			c0,0,31.967,57.094,76.511,58.263C118.203,423.332,113.337,386.934,41.692,365.069z"/>
		
			<linearGradient id="SVGID_00000033353843149442103870000017301512245416757644_" gradientUnits="userSpaceOnUse" x1="1065.7117" y1="-2200.3718" x2="1072.9796" y2="-2276.2317" gradientTransform="matrix(0.8665 -0.4992 0.4992 0.8665 293.0481 2853.9561)">
			<stop  offset="0" style="stop-color:#94A744"/>
			<stop  offset="0.3889" style="stop-color:#9BAF4A"/>
			<stop  offset="0.9879" style="stop-color:#B0C45A"/>
			<stop  offset="1" style="stop-color:#B0C55A"/>
		</linearGradient>
		<path style="fill:url(#SVGID_00000033353843149442103870000017301512245416757644_);" d="M73.341,333.471
			c0,0,8.048,69.266,52.637,87.057C125.977,420.528,136.549,382.159,73.341,333.471z"/>
		
			<linearGradient id="SVGID_00000013171886535330059650000009112482628969720734_" gradientUnits="userSpaceOnUse" x1="148.4328" y1="283.4894" x2="148.4328" y2="320.0728">
			<stop  offset="0" style="stop-color:#FFFFFF"/>
			<stop  offset="1" style="stop-color:#FFFFFF;stop-opacity:0"/>
		</linearGradient>
		<path style="opacity:0.8;fill:url(#SVGID_00000013171886535330059650000009112482628969720734_);" d="M184.854,320.871
			c-3.266-7.188-15.133-6.272-15.133-6.272c-3.977-13.46-23.371-12.182-23.371-12.182s-4.475-15.852-22.377-15.602
			c-3.163,0.044-6.03,0.776-8.618,1.935c0.204,11.07-1.113,21.86-3.344,32.299C144.649,321.166,185.019,321.236,184.854,320.871z"/>
		<g>
			
				<linearGradient id="SVGID_00000163064414833292743940000012135695439521049472_" gradientUnits="userSpaceOnUse" x1="-1717.3831" y1="610.5015" x2="-1736.2036" y2="650.6859" gradientTransform="matrix(0.8012 -0.5984 0.5984 0.8012 1121.7975 -1300.8352)">
				<stop  offset="0" style="stop-color:#94A744"/>
				<stop  offset="1" style="stop-color:#738034"/>
			</linearGradient>
			<path style="fill:url(#SVGID_00000163064414833292743940000012135695439521049472_);" d="M82.614,246.068
				c-0.387,0.146-0.57,0.606-0.408,1.028c18.503,48.321,51.254,90.014,94.051,119.455c0.373,0.257,0.865,0.188,1.097-0.154
				c0.233-0.341,0.12-0.822-0.25-1.077c-42.548-29.269-75.107-70.719-93.502-118.759C83.441,246.143,82.999,245.923,82.614,246.068z
				"/>
			<g>
				
					<linearGradient id="SVGID_00000099635720173163131710000012246249251800251266_" gradientUnits="userSpaceOnUse" x1="-1759.2919" y1="712.4245" x2="-1755.4766" y2="607.6307" gradientTransform="matrix(0.8012 -0.5984 0.5984 0.8012 1121.7975 -1300.8352)">
					<stop  offset="0" style="stop-color:#94A744"/>
					<stop  offset="0.3889" style="stop-color:#9BAF4A"/>
					<stop  offset="0.9879" style="stop-color:#B0C45A"/>
					<stop  offset="1" style="stop-color:#B0C55A"/>
				</linearGradient>
				<path style="fill:url(#SVGID_00000099635720173163131710000012246249251800251266_);" d="M139.876,313.192
					c-0.095-0.036-0.192-0.068-0.288-0.1c-2.747-0.906-3.948,2.183-4.436,4.321c-1.318,5.54-0.479,12.337-0.464,12.336
					c0.006,0.003,4.138-5.027,6.341-10.218c0.581-1.37,1.228-3.125,0.751-4.637C141.494,313.992,140.718,313.507,139.876,313.192z"
					/>
			</g>
			<g>
				
					<linearGradient id="SVGID_00000059267568465214095280000009214009668959413940_" gradientUnits="userSpaceOnUse" x1="-1760.5497" y1="712.3794" x2="-1756.7344" y2="607.5862" gradientTransform="matrix(0.8012 -0.5984 0.5984 0.8012 1121.7975 -1300.8352)">
					<stop  offset="0" style="stop-color:#94A744"/>
					<stop  offset="0.3889" style="stop-color:#9BAF4A"/>
					<stop  offset="0.9879" style="stop-color:#B0C45A"/>
					<stop  offset="1" style="stop-color:#B0C55A"/>
				</linearGradient>
				<path style="fill:url(#SVGID_00000059267568465214095280000009214009668959413940_);" d="M132.695,304.523
					c-0.093-0.04-0.188-0.077-0.283-0.113c-2.701-1.031-4.045,1.995-4.633,4.109c-1.576,5.471-1.06,12.296-1.045,12.296
					c0.006,0.004,4.37-4.827,6.814-9.907c0.645-1.34,1.373-3.063,0.968-4.595C134.275,305.397,133.522,304.876,132.695,304.523z"/>
			</g>
			<g>
				
					<linearGradient id="SVGID_00000006693989399488880350000012140592668444409784_" gradientUnits="userSpaceOnUse" x1="-1761.2644" y1="712.3539" x2="-1757.4491" y2="607.5614" gradientTransform="matrix(0.8012 -0.5984 0.5984 0.8012 1121.7975 -1300.8352)">
					<stop  offset="0" style="stop-color:#94A744"/>
					<stop  offset="0.3889" style="stop-color:#9BAF4A"/>
					<stop  offset="0.9879" style="stop-color:#B0C45A"/>
					<stop  offset="1" style="stop-color:#B0C55A"/>
				</linearGradient>
				<path style="fill:url(#SVGID_00000006693989399488880350000012140592668444409784_);" d="M125.93,295.53
					c-0.092-0.044-0.184-0.086-0.277-0.126c-2.65-1.157-4.135,1.804-4.821,3.887c-1.83,5.391-1.636,12.232-1.62,12.232
					c0.005,0.004,4.591-4.617,7.271-9.577c0.707-1.309,1.516-2.996,1.182-4.544C127.467,296.477,126.74,295.922,125.93,295.53z"/>
			</g>
			<g>
				
					<linearGradient id="SVGID_00000172430724916462786920000016542921749687288251_" gradientUnits="userSpaceOnUse" x1="-1761.4353" y1="712.3484" x2="-1757.6201" y2="607.5558" gradientTransform="matrix(0.8012 -0.5984 0.5984 0.8012 1121.7975 -1300.8352)">
					<stop  offset="0" style="stop-color:#94A744"/>
					<stop  offset="0.3889" style="stop-color:#9BAF4A"/>
					<stop  offset="0.9879" style="stop-color:#B0C45A"/>
					<stop  offset="1" style="stop-color:#B0C55A"/>
				</linearGradient>
				<path style="fill:url(#SVGID_00000172430724916462786920000016542921749687288251_);" d="M119.591,286.229
					c-0.09-0.049-0.18-0.095-0.271-0.139c-2.593-1.281-4.215,1.608-4.997,3.658c-2.08,5.301-2.204,12.144-2.189,12.144
					c0.006,0.004,4.802-4.397,7.71-9.227c0.767-1.274,1.654-2.921,1.393-4.484C121.083,287.247,120.381,286.658,119.591,286.229z"/>
			</g>
			<g>
				
					<linearGradient id="SVGID_00000162339608522030953380000010365015102333404852_" gradientUnits="userSpaceOnUse" x1="-1761.0613" y1="712.3636" x2="-1757.2458" y2="607.5683" gradientTransform="matrix(0.8012 -0.5984 0.5984 0.8012 1121.7975 -1300.8352)">
					<stop  offset="0" style="stop-color:#94A744"/>
					<stop  offset="0.3889" style="stop-color:#9BAF4A"/>
					<stop  offset="0.9879" style="stop-color:#B0C45A"/>
					<stop  offset="1" style="stop-color:#B0C55A"/>
				</linearGradient>
				<path style="fill:url(#SVGID_00000162339608522030953380000010365015102333404852_);" d="M113.691,276.634
					c-0.087-0.052-0.175-0.103-0.264-0.152c-2.532-1.403-4.286,1.407-5.163,3.42c-2.325,5.2-2.766,12.034-2.751,12.035
					c0.005,0.004,5.003-4.168,8.133-8.858c0.825-1.237,1.788-2.842,1.6-4.416C115.134,277.723,114.46,277.1,113.691,276.634z"/>
			</g>
			<g>
				
					<linearGradient id="SVGID_00000097471038117954892810000004005660496475889310_" gradientUnits="userSpaceOnUse" x1="-1760.1415" y1="712.3984" x2="-1756.326" y2="607.6026" gradientTransform="matrix(0.8012 -0.5984 0.5984 0.8012 1121.7975 -1300.8352)">
					<stop  offset="0" style="stop-color:#94A744"/>
					<stop  offset="0.3889" style="stop-color:#9BAF4A"/>
					<stop  offset="0.9879" style="stop-color:#B0C45A"/>
					<stop  offset="1" style="stop-color:#B0C55A"/>
				</linearGradient>
				<path style="fill:url(#SVGID_00000097471038117954892810000004005660496475889310_);" d="M108.239,266.76
					c-0.084-0.057-0.17-0.111-0.257-0.165c-2.465-1.524-4.348,1.204-5.317,3.175c-2.562,5.091-3.322,11.901-3.306,11.903
					c0.005,0.004,5.192-3.929,8.537-8.47c0.883-1.198,1.918-2.757,1.804-4.34C109.63,267.917,108.986,267.263,108.239,266.76z"/>
			</g>
			<g>
				
					<linearGradient id="SVGID_00000075151044121432846910000013710899942923025049_" gradientUnits="userSpaceOnUse" x1="-1758.6749" y1="712.4526" x2="-1754.8595" y2="607.657" gradientTransform="matrix(0.8012 -0.5984 0.5984 0.8012 1121.7975 -1300.8352)">
					<stop  offset="0" style="stop-color:#94A744"/>
					<stop  offset="0.3889" style="stop-color:#9BAF4A"/>
					<stop  offset="0.9879" style="stop-color:#B0C45A"/>
					<stop  offset="1" style="stop-color:#B0C55A"/>
				</linearGradient>
				<path style="fill:url(#SVGID_00000075151044121432846910000013710899942923025049_);" d="M103.247,256.623
					c-0.081-0.061-0.165-0.12-0.249-0.177c-2.393-1.643-4.4,0.996-5.46,2.922c-2.797,4.971-3.869,11.748-3.854,11.75
					c0.004,0.005,5.37-3.683,8.922-8.065c0.937-1.156,2.044-2.666,2.003-4.256C104.585,257.847,103.971,257.162,103.247,256.623z"/>
			</g>
			<g>
				
					<linearGradient id="SVGID_00000095326914804351761530000005613517568257029308_" gradientUnits="userSpaceOnUse" x1="-1756.661" y1="712.5267" x2="-1752.8456" y2="607.7309" gradientTransform="matrix(0.8012 -0.5984 0.5984 0.8012 1121.7975 -1300.8352)">
					<stop  offset="0" style="stop-color:#94A744"/>
					<stop  offset="0.3889" style="stop-color:#9BAF4A"/>
					<stop  offset="0.9879" style="stop-color:#B0C45A"/>
					<stop  offset="1" style="stop-color:#B0C55A"/>
				</linearGradient>
				<path style="fill:url(#SVGID_00000095326914804351761530000005613517568257029308_);" d="M98.727,246.236
					c-0.079-0.065-0.159-0.128-0.241-0.189c-2.315-1.759-4.443,0.786-5.591,2.663c-3.024,4.843-4.409,11.574-4.394,11.576
					c0.004,0.005,5.536-3.428,9.288-7.644c0.99-1.112,2.165-2.57,2.198-4.163C100.007,247.527,99.426,246.811,98.727,246.236z"/>
			</g>
			<g>
				
					<linearGradient id="SVGID_00000102528730125225807530000015493317593316186503_" gradientUnits="userSpaceOnUse" x1="-1775.231" y1="711.8442" x2="-1771.4161" y2="607.0644" gradientTransform="matrix(0.8012 -0.5984 0.5984 0.8012 1121.7975 -1300.8352)">
					<stop  offset="0" style="stop-color:#94A744"/>
					<stop  offset="0.3889" style="stop-color:#9BAF4A"/>
					<stop  offset="0.9879" style="stop-color:#B0C45A"/>
					<stop  offset="1" style="stop-color:#B0C55A"/>
				</linearGradient>
				<path style="fill:url(#SVGID_00000102528730125225807530000015493317593316186503_);" d="M113.967,328.839
					c-0.027-0.108-0.051-0.216-0.074-0.325c-0.626-3.091,2.764-3.574,4.996-3.663c5.828-0.18,12.493,1.302,12.495,1.288
					c-0.002-0.007-5.346,3.73-10.904,5.165c-1.463,0.378-3.354,0.736-4.907-0.086C114.646,330.727,114.205,329.796,113.967,328.839z
					"/>
			</g>
			<g>
				
					<linearGradient id="SVGID_00000005966283705290090000000005171298786255120535_" gradientUnits="userSpaceOnUse" x1="-1776.3115" y1="711.8043" x2="-1772.4967" y2="607.0232" gradientTransform="matrix(0.8012 -0.5984 0.5984 0.8012 1121.7975 -1300.8352)">
					<stop  offset="0" style="stop-color:#94A744"/>
					<stop  offset="0.3889" style="stop-color:#9BAF4A"/>
					<stop  offset="0.9879" style="stop-color:#B0C45A"/>
					<stop  offset="1" style="stop-color:#B0C55A"/>
				</linearGradient>
				<path style="fill:url(#SVGID_00000005966283705290090000000005171298786255120535_);" d="M106.084,318.943
					c-0.022-0.108-0.041-0.218-0.058-0.328c-0.48-3.116,2.928-3.44,5.162-3.426c5.829,0.092,12.416,1.881,12.418,1.867
					c-0.002-0.006-5.514,3.476-11.132,4.65c-1.479,0.309-3.383,0.579-4.897-0.314C106.674,320.86,106.277,319.909,106.084,318.943z"
					/>
			</g>
			<g>
				
					<linearGradient id="SVGID_00000088855403228993201740000006186297162637210016_" gradientUnits="userSpaceOnUse" x1="-1776.8203" y1="711.7848" x2="-1773.0055" y2="607.0049" gradientTransform="matrix(0.8012 -0.5984 0.5984 0.8012 1121.7975 -1300.8352)">
					<stop  offset="0" style="stop-color:#94A744"/>
					<stop  offset="0.3889" style="stop-color:#9BAF4A"/>
					<stop  offset="0.9879" style="stop-color:#B0C45A"/>
					<stop  offset="1" style="stop-color:#B0C55A"/>
				</linearGradient>
				<path style="fill:url(#SVGID_00000088855403228993201740000006186297162637210016_);" d="M98.673,308.689
					c-0.016-0.11-0.031-0.22-0.043-0.33c-0.333-3.136,3.086-3.301,5.316-3.18c5.819,0.365,12.314,2.46,12.317,2.446
					c-0.001-0.006-5.671,3.215-11.338,4.125c-1.492,0.24-3.408,0.42-4.877-0.543C99.173,310.632,98.821,309.663,98.673,308.689z"/>
			</g>
			<g>
				
					<linearGradient id="SVGID_00000024683607071440903700000010703527972645107355_" gradientUnits="userSpaceOnUse" x1="-1776.7568" y1="711.7869" x2="-1772.9419" y2="607.0054" gradientTransform="matrix(0.8012 -0.5984 0.5984 0.8012 1121.7975 -1300.8352)">
					<stop  offset="0" style="stop-color:#94A744"/>
					<stop  offset="0.3889" style="stop-color:#9BAF4A"/>
					<stop  offset="0.9879" style="stop-color:#B0C45A"/>
					<stop  offset="1" style="stop-color:#B0C55A"/>
				</linearGradient>
				<path style="fill:url(#SVGID_00000024683607071440903700000010703527972645107355_);" d="M91.747,298.095
					c-0.011-0.111-0.021-0.222-0.027-0.332c-0.187-3.15,3.237-3.153,5.459-2.928c5.798,0.64,12.188,3.037,12.192,3.023
					c-0.002-0.007-5.815,2.946-11.519,3.589c-1.502,0.169-3.423,0.259-4.847-0.772C92.156,300.061,91.849,299.076,91.747,298.095z"
					/>
			</g>
			<g>
				
					<linearGradient id="SVGID_00000024717152299744037710000011913110312487895195_" gradientUnits="userSpaceOnUse" x1="-1776.1201" y1="711.8095" x2="-1772.3053" y2="607.0277" gradientTransform="matrix(0.8012 -0.5984 0.5984 0.8012 1121.7975 -1300.8352)">
					<stop  offset="0" style="stop-color:#94A744"/>
					<stop  offset="0.3889" style="stop-color:#9BAF4A"/>
					<stop  offset="0.9879" style="stop-color:#B0C45A"/>
					<stop  offset="1" style="stop-color:#B0C55A"/>
				</linearGradient>
				<path style="fill:url(#SVGID_00000024717152299744037710000011913110312487895195_);" d="M85.318,287.178
					c-0.006-0.111-0.01-0.223-0.012-0.333c-0.041-3.158,3.381-2.999,5.591-2.668c5.763,0.915,12.038,3.613,12.042,3.599
					c-0.001-0.007-5.947,2.67-11.676,3.043c-1.509,0.099-3.433,0.097-4.807-1.001C85.635,289.163,85.375,288.164,85.318,287.178z"/>
			</g>
			<g>
				
					<linearGradient id="SVGID_00000079444290827878033990000004293664515331513013_" gradientUnits="userSpaceOnUse" x1="-1774.9092" y1="711.8533" x2="-1771.0944" y2="607.071" gradientTransform="matrix(0.8012 -0.5984 0.5984 0.8012 1121.7975 -1300.8352)">
					<stop  offset="0" style="stop-color:#94A744"/>
					<stop  offset="0.3889" style="stop-color:#9BAF4A"/>
					<stop  offset="0.9879" style="stop-color:#B0C45A"/>
					<stop  offset="1" style="stop-color:#B0C55A"/>
				</linearGradient>
				<path style="fill:url(#SVGID_00000079444290827878033990000004293664515331513013_);" d="M79.399,275.955
					c-0.001-0.112,0-0.223,0.003-0.334c0.104-3.162,3.517-2.838,5.71-2.403c5.717,1.19,11.861,4.186,11.866,4.172
					c-0.001-0.006-6.066,2.388-11.808,2.488c-1.511,0.027-3.434-0.065-4.757-1.229C79.625,277.956,79.41,276.943,79.399,275.955z"/>
			</g>
			<g>
				
					<linearGradient id="SVGID_00000121248134878671083600000006479705381669925795_" gradientUnits="userSpaceOnUse" x1="-1773.1234" y1="711.9176" x2="-1769.3086" y2="607.1353" gradientTransform="matrix(0.8012 -0.5984 0.5984 0.8012 1121.7975 -1300.8352)">
					<stop  offset="0" style="stop-color:#94A744"/>
					<stop  offset="0.3889" style="stop-color:#9BAF4A"/>
					<stop  offset="0.9879" style="stop-color:#B0C45A"/>
					<stop  offset="1" style="stop-color:#B0C55A"/>
				</linearGradient>
				<path style="fill:url(#SVGID_00000121248134878671083600000006479705381669925795_);" d="M74.003,264.442
					c0.004-0.112,0.01-0.223,0.019-0.334c0.25-3.159,3.646-2.672,5.817-2.131c5.659,1.465,11.66,4.757,11.665,4.743
					c0-0.007-6.172,2.099-11.915,1.925c-1.512-0.046-3.43-0.23-4.697-1.458C74.136,266.455,73.969,265.432,74.003,264.442z"/>
			</g>
			<g>
				
					<linearGradient id="SVGID_00000059305391598864419510000015099653901953994159_" gradientUnits="userSpaceOnUse" x1="-1770.7622" y1="712.0037" x2="-1766.9473" y2="607.2203" gradientTransform="matrix(0.8012 -0.5984 0.5984 0.8012 1121.7975 -1300.8352)">
					<stop  offset="0" style="stop-color:#94A744"/>
					<stop  offset="0.3889" style="stop-color:#9BAF4A"/>
					<stop  offset="0.9879" style="stop-color:#B0C45A"/>
					<stop  offset="1" style="stop-color:#B0C55A"/>
				</linearGradient>
				<path style="fill:url(#SVGID_00000059305391598864419510000015099653901953994159_);" d="M69.142,252.657
					c0.008-0.112,0.021-0.223,0.034-0.334c0.396-3.152,3.766-2.5,5.911-1.853c5.588,1.741,11.432,5.324,11.439,5.311
					c-0.001-0.007-6.265,1.805-11.995,1.355c-1.509-0.119-3.416-0.395-4.627-1.686C69.183,254.678,69.062,253.646,69.142,252.657z"
					/>
			</g>
			<g>
				
					<linearGradient id="SVGID_00000022531296387798826480000004762374897445628831_" gradientUnits="userSpaceOnUse" x1="-1759.7937" y1="712.4072" x2="-1755.9786" y2="607.6188" gradientTransform="matrix(0.8012 -0.5984 0.5984 0.8012 1121.7975 -1300.8352)">
					<stop  offset="0" style="stop-color:#94A744"/>
					<stop  offset="0.3889" style="stop-color:#9BAF4A"/>
					<stop  offset="0.9879" style="stop-color:#B0C45A"/>
					<stop  offset="1" style="stop-color:#B0C55A"/>
				</linearGradient>
				<path style="fill:url(#SVGID_00000022531296387798826480000004762374897445628831_);" d="M78.301,233.819
					c0.095-0.032,0.191-0.062,0.287-0.09c2.742-0.779,3.947,2.572,4.539,4.818c1.492,5.84,1.644,12.797,1.655,12.808
					c0.001,0.018-4.827-5.097-7.378-10.77c-0.676-1.484-1.416-3.416-0.979-5.035C76.685,234.586,77.461,234.105,78.301,233.819z"/>
			</g>
		</g>
		
			<linearGradient id="SVGID_00000158030906419183418180000000396677896960079802_" gradientUnits="userSpaceOnUse" x1="89.3639" y1="184.2237" x2="65.8959" y2="239.3378">
			<stop  offset="0" style="stop-color:#D5E7FB"/>
			<stop  offset="0.2449" style="stop-color:#D1E5FB"/>
			<stop  offset="0.5124" style="stop-color:#C3DEFB"/>
			<stop  offset="0.7896" style="stop-color:#AED4FC"/>
			<stop  offset="1" style="stop-color:#98C9FC"/>
		</linearGradient>
		<path style="fill:url(#SVGID_00000158030906419183418180000000396677896960079802_);" d="M77.444,198.287l-0.167,2.843
			c-0.019,0.326-0.197,0.621-0.477,0.79l-2.436,1.474c-0.703,0.425-0.613,1.473,0.152,1.772l2.652,1.037
			c0.304,0.119,0.53,0.38,0.604,0.697l0.649,2.773c0.187,0.8,1.211,1.038,1.732,0.403l1.806-2.201
			c0.207-0.252,0.525-0.387,0.85-0.359l2.837,0.24c0.819,0.069,1.362-0.831,0.919-1.523l-1.536-2.398
			c-0.176-0.275-0.206-0.619-0.079-0.919l1.105-2.624c0.319-0.758-0.369-1.552-1.165-1.344l-2.755,0.72
			c-0.316,0.083-0.652,0.004-0.899-0.209l-2.155-1.861C78.46,197.057,77.492,197.466,77.444,198.287z"/>
		<g>
			
				<linearGradient id="SVGID_00000138535349150978311950000017608752847976719795_" gradientUnits="userSpaceOnUse" x1="506.7566" y1="-795.4178" x2="501.5106" y2="-782.7991" gradientTransform="matrix(0.9795 -0.2015 0.2015 0.9795 -26.7981 1150.269)">
				<stop  offset="0" style="stop-color:#E093E3"/>
				<stop  offset="0.2809" style="stop-color:#D790E7"/>
				<stop  offset="0.7366" style="stop-color:#BF86F0"/>
				<stop  offset="1" style="stop-color:#AE80F7"/>
			</linearGradient>
			<polygon style="fill:url(#SVGID_00000138535349150978311950000017608752847976719795_);" points="292.53,295.959 
				305.862,293.216 311.176,319.046 297.844,321.789 			"/>
			
				<linearGradient id="SVGID_00000083804618142807791780000014294060273959864749_" gradientUnits="userSpaceOnUse" x1="285.9768" y1="-411.0374" x2="366.7774" y2="-544.6387" gradientTransform="matrix(0.9949 -0.1013 0.1013 0.9949 -46.416 575.0313)">
				<stop  offset="0" style="stop-color:#BF3A6F"/>
				<stop  offset="0.9854" style="stop-color:#CE6B95"/>
			</linearGradient>
			<path style="fill:url(#SVGID_00000083804618142807791780000014294060273959864749_);" d="M264.986,139.01l4.725-18.316
				c-0.564-2.743-3.245-4.509-5.988-3.945l-142.057,24.794c-7.28,1.498-11.977,8.572-10.489,15.8l0.016,0.08l0.017,0.08
				l39.551,186.032l29.441-6.057l-34.779-173.155L264.986,139.01z"/>
			
				<linearGradient id="SVGID_00000158022380860708970680000004036420655759136155_" gradientUnits="userSpaceOnUse" x1="263.2579" y1="-199.9214" x2="320.858" y2="-429.5219" gradientTransform="matrix(0.9949 -0.1013 0.1013 0.9949 -46.416 575.0313)">
				<stop  offset="0" style="stop-color:#CC3D76"/>
				<stop  offset="0.9854" style="stop-color:#DB719F"/>
			</linearGradient>
			<path style="fill:url(#SVGID_00000158022380860708970680000004036420655759136155_);" d="M269.369,119.029
				c-0.375-1.824-2.157-2.998-3.981-2.623l-144.406,25.277l39.829,187.383l146.237-30.087L269.369,119.029z"/>
			
				<linearGradient id="SVGID_00000036968751357100153130000006112893261926107292_" gradientUnits="userSpaceOnUse" x1="210.733" y1="347.0672" x2="230.826" y2="266.9743">
				<stop  offset="0" style="stop-color:#CC3D76"/>
				<stop  offset="0.9854" style="stop-color:#DB719F"/>
			</linearGradient>
			<path style="opacity:0.3;fill:url(#SVGID_00000036968751357100153130000006112893261926107292_);" d="M160.811,329.066
				l146.237-30.087l-1.89-9.025c-10.134-5.776-20.543-11.479-31.967-13.798c-21.186-4.301-42.83,3.493-64.44,4.081
				c-18.441,0.502-36.496-4.331-53.373-11.455c-2.744-1.158-5.489-2.551-8.242-4.049L160.811,329.066z"/>
			
				<linearGradient id="SVGID_00000079451350847888731710000014537711189655727258_" gradientUnits="userSpaceOnUse" x1="496.6518" y1="-744.8899" x2="308.7455" y2="-770.4946" gradientTransform="matrix(0.9795 -0.2015 0.2015 0.9795 -26.7981 1150.269)">
				<stop  offset="0" style="stop-color:#D5E7FB"/>
				<stop  offset="0.2449" style="stop-color:#D1E5FB"/>
				<stop  offset="0.5124" style="stop-color:#C3DEFB"/>
				<stop  offset="0.7896" style="stop-color:#AED4FC"/>
				<stop  offset="1" style="stop-color:#98C9FC"/>
			</linearGradient>
			<path style="fill:url(#SVGID_00000079451350847888731710000014537711189655727258_);" d="M161.494,328.925
				c-7.28,1.498-12.159,7.687-10.896,13.824l0.028,0.136c1.263,6.137,8.188,9.897,15.468,8.4l141.202-29.051l-4.6-22.359
				L161.494,328.925z"/>
			
				<linearGradient id="SVGID_00000013150917555058271730000005495827330018454661_" gradientUnits="userSpaceOnUse" x1="323.5856" y1="-244.7708" x2="387.23" y2="-325.1261" gradientTransform="matrix(0.9949 -0.1013 0.1013 0.9949 -46.416 575.0313)">
				<stop  offset="0" style="stop-color:#A0325E"/>
				<stop  offset="0.9854" style="stop-color:#AE5B80"/>
			</linearGradient>
			<path style="fill:url(#SVGID_00000013150917555058271730000005495827330018454661_);" d="M308.457,319.605l-46.998,9.669
				l-95.836,19.717c-5.769,1.187-11.277-1.804-12.277-6.667l-0.028-0.136c-1.001-4.863,2.879-9.785,8.648-10.972l95.836-19.717
				l46.998-9.669l2.72-0.56l-0.472-2.293l-145.554,29.946c-7.28,1.498-12.159,7.687-10.896,13.824l0.028,0.136
				c1.262,6.137,8.188,9.897,15.468,8.4l145.554-29.946l-0.472-2.292L308.457,319.605z"/>
			<g>
				
					<linearGradient id="SVGID_00000048495500680608152440000017338129437867853440_" gradientUnits="userSpaceOnUse" x1="285.3558" y1="-425.8997" x2="241.5273" y2="-294.1057" gradientTransform="matrix(0.9949 -0.1013 0.1013 0.9949 -46.416 575.0313)">
					<stop  offset="0" style="stop-color:#FFFFFF"/>
					<stop  offset="0.2836" style="stop-color:#FAFCFF"/>
					<stop  offset="0.6369" style="stop-color:#EAF5FE"/>
					<stop  offset="1" style="stop-color:#D3E9FD"/>
				</linearGradient>
				<path style="fill:url(#SVGID_00000048495500680608152440000017338129437867853440_);" d="M163.365,163.29l-6.742,47.212
					l9.246-1.902l1.173-8.96l17.485-3.597l4.614,7.77l9.309-1.915l-24.832-40.716L163.365,163.29z M167.981,192.103l2.574-19.673
					l10.131,17.059L167.981,192.103z"/>
				
					<linearGradient id="SVGID_00000023276907948953329090000002563379908069257399_" gradientUnits="userSpaceOnUse" x1="342.7032" y1="-406.8273" x2="298.8748" y2="-275.0339" gradientTransform="matrix(0.9949 -0.1013 0.1013 0.9949 -46.416 575.0313)">
					<stop  offset="0" style="stop-color:#FFFFFF"/>
					<stop  offset="0.2836" style="stop-color:#FAFCFF"/>
					<stop  offset="0.6369" style="stop-color:#EAF5FE"/>
					<stop  offset="1" style="stop-color:#D3E9FD"/>
				</linearGradient>
				<polygon style="fill:url(#SVGID_00000023276907948953329090000002563379908069257399_);" points="243.998,184.986 
					255.126,161.325 253.664,154.217 228.379,159.419 229.867,166.653 245.025,163.534 234.023,187.169 235.485,194.277 
					261.021,189.023 259.533,181.79 				"/>
				
					<linearGradient id="SVGID_00000123425623714800748660000012560343413370001036_" gradientUnits="userSpaceOnUse" x1="311.6115" y1="-417.1673" x2="267.7832" y2="-285.3738" gradientTransform="matrix(0.9949 -0.1013 0.1013 0.9949 -46.416 575.0313)">
					<stop  offset="0" style="stop-color:#FFFFFF"/>
					<stop  offset="0.2836" style="stop-color:#FAFCFF"/>
					<stop  offset="0.6369" style="stop-color:#EAF5FE"/>
					<stop  offset="1" style="stop-color:#D3E9FD"/>
				</linearGradient>
				<path style="fill:url(#SVGID_00000123425623714800748660000012560343413370001036_);" d="M205.364,194.965
					c-1.459,0.3-2.399,1.727-2.099,3.186c0.3,1.459,1.727,2.399,3.186,2.099c1.459-0.3,2.399-1.727,2.099-3.186
					C208.249,195.605,206.823,194.665,205.364,194.965z"/>
				
					<linearGradient id="SVGID_00000114049380703184475260000016824564645151634349_" gradientUnits="userSpaceOnUse" x1="320.2222" y1="-414.3042" x2="276.3937" y2="-282.5102" gradientTransform="matrix(0.9949 -0.1013 0.1013 0.9949 -46.416 575.0313)">
					<stop  offset="0" style="stop-color:#FFFFFF"/>
					<stop  offset="0.2836" style="stop-color:#FAFCFF"/>
					<stop  offset="0.6369" style="stop-color:#EAF5FE"/>
					<stop  offset="1" style="stop-color:#D3E9FD"/>
				</linearGradient>
				<path style="fill:url(#SVGID_00000114049380703184475260000016824564645151634349_);" d="M215.109,192.96
					c-1.459,0.3-2.399,1.727-2.099,3.186c0.3,1.459,1.727,2.399,3.186,2.099c1.459-0.3,2.399-1.727,2.099-3.186
					C217.995,193.6,216.568,192.66,215.109,192.96z"/>
				
					<linearGradient id="SVGID_00000144339944298202585350000013252939246171171458_" gradientUnits="userSpaceOnUse" x1="328.8327" y1="-411.4405" x2="285.0041" y2="-279.6462" gradientTransform="matrix(0.9949 -0.1013 0.1013 0.9949 -46.416 575.0313)">
					<stop  offset="0" style="stop-color:#FFFFFF"/>
					<stop  offset="0.2836" style="stop-color:#FAFCFF"/>
					<stop  offset="0.6369" style="stop-color:#EAF5FE"/>
					<stop  offset="1" style="stop-color:#D3E9FD"/>
				</linearGradient>
				<path style="fill:url(#SVGID_00000144339944298202585350000013252939246171171458_);" d="M224.854,190.955
					c-1.459,0.3-2.399,1.727-2.099,3.186c0.3,1.459,1.727,2.399,3.186,2.099c1.459-0.3,2.399-1.727,2.099-3.186
					C227.74,191.595,226.314,190.655,224.854,190.955z"/>
			</g>
			
				<linearGradient id="SVGID_00000013879091860654802630000008399175742677692045_" gradientUnits="userSpaceOnUse" x1="352.6304" y1="-758.2939" x2="459.1468" y2="-758.2939" gradientTransform="matrix(0.9795 -0.2015 0.2015 0.9795 -26.7981 1150.269)">
				<stop  offset="0" style="stop-color:#B3C2D2"/>
				<stop  offset="0.2696" style="stop-color:#AFC0D2"/>
				<stop  offset="0.5641" style="stop-color:#A1B9D2"/>
				<stop  offset="0.8694" style="stop-color:#8CAED3"/>
				<stop  offset="1" style="stop-color:#80A8D3"/>
			</linearGradient>
			<path style="fill:url(#SVGID_00000013879091860654802630000008399175742677692045_);" d="M270.14,315.001
				c-34.805,6.148-69.924,13.382-104.332,21.465C200.612,330.31,235.734,323.092,270.14,315.001z"/>
			
				<linearGradient id="SVGID_00000105401528154181396990000007910045654794499500_" gradientUnits="userSpaceOnUse" x1="384.6736" y1="-752.1978" x2="491.1901" y2="-752.1978" gradientTransform="matrix(0.9795 -0.2015 0.2015 0.9795 -26.7981 1150.269)">
				<stop  offset="0" style="stop-color:#B3C2D2"/>
				<stop  offset="0.2696" style="stop-color:#AFC0D2"/>
				<stop  offset="0.5641" style="stop-color:#A1B9D2"/>
				<stop  offset="0.8694" style="stop-color:#8CAED3"/>
				<stop  offset="1" style="stop-color:#80A8D3"/>
			</linearGradient>
			<path style="fill:url(#SVGID_00000105401528154181396990000007910045654794499500_);" d="M302.754,314.515
				c-34.806,6.148-69.925,13.382-104.332,21.465C233.226,329.825,268.349,322.607,302.754,314.515z"/>
		</g>
		<g>
			<g>
				
					<linearGradient id="SVGID_00000028287038775090540270000008335067903820566416_" gradientUnits="userSpaceOnUse" x1="295.4544" y1="424.3492" x2="427.7416" y2="582.9687">
					<stop  offset="0" style="stop-color:#72B2F9"/>
					<stop  offset="1" style="stop-color:#9BC8F9"/>
				</linearGradient>
				<path style="fill:url(#SVGID_00000028287038775090540270000008335067903820566416_);" d="M360.314,393.054
					c-0.712-3.122-3.382-5.318-6.455-5.318h-48.836h-88.352h-8.012v42.811h8.012h88.352h48.828c3.079,0,5.729-2.22,6.462-5.343
					C363.492,411.641,361.815,399.634,360.314,393.054z"/>
				
					<linearGradient id="SVGID_00000130617212999086047470000010572305963933761966_" gradientUnits="userSpaceOnUse" x1="11296.5879" y1="374.8639" x2="11266.0498" y2="430.5196" gradientTransform="matrix(-1 0 0 1 11441.0654 0)">
					<stop  offset="0" style="stop-color:#72B2F9"/>
					<stop  offset="1" style="stop-color:#9BC8F9"/>
				</linearGradient>
				<path style="fill:url(#SVGID_00000130617212999086047470000010572305963933761966_);" d="M164.427,391.896h-56.928
					c-1.1,0-1.992-0.931-1.992-2.08v0c0-1.149,0.892-2.08,1.992-2.08h112.386c0.251,0,0.473,0.165,0.556,0.413
					c0.992,2.943,6.582,21.238-0.007,41.974c-0.08,0.253-0.309,0.425-0.564,0.425H107.499c-1.1,0-1.992-0.931-1.992-2.081
					c0-1.149,0.892-2.08,1.992-2.08h56.902c0.266,0,0.502-0.188,0.573-0.456c4.552-17.229,0.796-31.058,0.013-33.611
					C164.909,392.065,164.683,391.896,164.427,391.896z"/>
				
					<linearGradient id="SVGID_00000098936253393606002030000010747093560127857308_" gradientUnits="userSpaceOnUse" x1="11164.3828" y1="382.5395" x2="11140.7695" y2="425.575" gradientTransform="matrix(-1 0 0 1 11441.0654 0)">
					<stop  offset="0" style="stop-color:#FFFFFF"/>
					<stop  offset="0.2836" style="stop-color:#FAFCFF"/>
					<stop  offset="0.6369" style="stop-color:#EAF5FE"/>
					<stop  offset="1" style="stop-color:#D3E9FD"/>
				</linearGradient>
				<path style="fill:url(#SVGID_00000098936253393606002030000010747093560127857308_);" d="M239.676,420.973
					c3.716-11.694,0.563-22.011,0.004-23.671c-0.047-0.139-0.172-0.233-0.314-0.233h48.013h55.627c0.142,0,0.267,0.093,0.314,0.233
					c0.559,1.66,3.712,11.977-0.004,23.671c-0.045,0.142-0.174,0.24-0.318,0.24H287.38h-48.022
					C239.502,421.213,239.631,421.116,239.676,420.973z"/>
				
					<linearGradient id="SVGID_00000173863087003287505610000015499320067864507560_" gradientUnits="userSpaceOnUse" x1="167.4624" y1="372.8659" x2="159.3693" y2="432.4783">
					<stop  offset="0" style="stop-color:#FFFFFF"/>
					<stop  offset="0.2836" style="stop-color:#FAFCFF"/>
					<stop  offset="0.6369" style="stop-color:#EAF5FE"/>
					<stop  offset="1" style="stop-color:#D3E9FD"/>
				</linearGradient>
				<path style="fill:url(#SVGID_00000173863087003287505610000015499320067864507560_);" d="M216.542,391.896
					c0,0,5.253,15.164,0,34.49H107.963v-34.49H216.542z"/>
				<g>
					
						<linearGradient id="SVGID_00000103953868941237852760000004038145998895923328_" gradientUnits="userSpaceOnUse" x1="114.5585" y1="399.603" x2="204.9631" y2="399.603">
						<stop  offset="0" style="stop-color:#D5E7FB"/>
						<stop  offset="0.2449" style="stop-color:#D1E5FB"/>
						<stop  offset="0.5124" style="stop-color:#C3DEFB"/>
						<stop  offset="0.7896" style="stop-color:#AED4FC"/>
						<stop  offset="1" style="stop-color:#98C9FC"/>
					</linearGradient>
					<path style="fill:url(#SVGID_00000103953868941237852760000004038145998895923328_);" d="M204.963,399.603
						c-29.986-1.62-60.418-1.607-90.405,0C144.545,401.21,174.977,401.223,204.963,399.603z"/>
					
						<linearGradient id="SVGID_00000085937426298358503510000007616790323841422254_" gradientUnits="userSpaceOnUse" x1="147.7581" y1="408.4745" x2="212.2415" y2="408.4745">
						<stop  offset="0" style="stop-color:#D5E7FB"/>
						<stop  offset="0.2449" style="stop-color:#D1E5FB"/>
						<stop  offset="0.5124" style="stop-color:#C3DEFB"/>
						<stop  offset="0.7896" style="stop-color:#AED4FC"/>
						<stop  offset="1" style="stop-color:#98C9FC"/>
					</linearGradient>
					<path style="fill:url(#SVGID_00000085937426298358503510000007616790323841422254_);" d="M147.758,408.474
						c21.469,1.36,43.014,1.371,64.483,0C190.772,407.103,169.227,407.114,147.758,408.474z"/>
					
						<linearGradient id="SVGID_00000060029088786839997540000012720621913197280157_" gradientUnits="userSpaceOnUse" x1="128.0937" y1="418.537" x2="192.5771" y2="418.537">
						<stop  offset="0" style="stop-color:#D5E7FB"/>
						<stop  offset="0.2449" style="stop-color:#D1E5FB"/>
						<stop  offset="0.5124" style="stop-color:#C3DEFB"/>
						<stop  offset="0.7896" style="stop-color:#AED4FC"/>
						<stop  offset="1" style="stop-color:#98C9FC"/>
					</linearGradient>
					<path style="fill:url(#SVGID_00000060029088786839997540000012720621913197280157_);" d="M128.094,418.537
						c21.469,1.36,43.014,1.371,64.483,0C171.108,417.166,149.563,417.177,128.094,418.537z"/>
				</g>
			</g>
			
				<linearGradient id="SVGID_00000060020293343390891880000001734142588743499685_" gradientUnits="userSpaceOnUse" x1="309.4887" y1="324.1153" x2="286.62" y2="398.6404">
				<stop  offset="0" style="stop-color:#DFA23E"/>
				<stop  offset="0.2793" style="stop-color:#DE9F3C"/>
				<stop  offset="0.5244" style="stop-color:#DC9436"/>
				<stop  offset="0.7567" style="stop-color:#D8822C"/>
				<stop  offset="0.9798" style="stop-color:#D3691E"/>
				<stop  offset="1" style="stop-color:#D2661C"/>
			</linearGradient>
			<path style="fill:url(#SVGID_00000060020293343390891880000001734142588743499685_);" d="M373.174,350.242
				c-0.712-3.122-3.382-5.318-6.455-5.318H332.39H229.53h-8.012v42.811h8.012H332.39h34.321c3.079,0,5.729-2.22,6.462-5.343
				C376.352,368.829,374.675,356.822,373.174,350.242z"/>
			
				<linearGradient id="SVGID_00000166675987932575107890000013916363244956808616_" gradientUnits="userSpaceOnUse" x1="11151.5234" y1="339.7281" x2="11127.9092" y2="382.7636" gradientTransform="matrix(-1 0 0 1 11441.0654 0)">
				<stop  offset="0" style="stop-color:#FFFFFF"/>
				<stop  offset="0.2836" style="stop-color:#FAFCFF"/>
				<stop  offset="0.6369" style="stop-color:#EAF5FE"/>
				<stop  offset="1" style="stop-color:#D3E9FD"/>
			</linearGradient>
			<path style="fill:url(#SVGID_00000166675987932575107890000013916363244956808616_);" d="M252.536,378.162
				c3.716-11.694,0.564-22.011,0.004-23.671c-0.047-0.139-0.172-0.233-0.314-0.233h48.013h55.627c0.142,0,0.267,0.093,0.314,0.233
				c0.559,1.66,3.712,11.977-0.004,23.671c-0.045,0.142-0.174,0.24-0.318,0.24h-55.619h-48.022
				C252.362,378.401,252.49,378.304,252.536,378.162z"/>
		</g>
		<g>
			<g>
				
					<linearGradient id="SVGID_00000028284211651443295600000011268712124818930083_" gradientUnits="userSpaceOnUse" x1="10814.8115" y1="405.5245" x2="10812.5322" y2="426.2243" gradientTransform="matrix(-1 0 0 1 11186.4336 0)">
					<stop  offset="0" style="stop-color:#E9A78D"/>
					<stop  offset="1" style="stop-color:#ECCDB8"/>
				</linearGradient>
				<path style="fill:url(#SVGID_00000028284211651443295600000011268712124818930083_);" d="M358.002,403.815l12.967,0.142
					l-1.827,12.131c-0.108,1.538,0.76,2.924,2.174,3.475l19.962,7.817l-0.253,3.027l-22.871-0.254l-11.083-0.133L358.002,403.815z"
					/>
				
					<linearGradient id="SVGID_00000081639944669861119940000012395068432742597526_" gradientUnits="userSpaceOnUse" x1="10795.2695" y1="421.985" x2="10848.7529" y2="436.8985" gradientTransform="matrix(-1 0 0 1 11186.4336 0)">
					<stop  offset="0" style="stop-color:#CF4D4C"/>
					<stop  offset="0.354" style="stop-color:#CD4A49"/>
					<stop  offset="0.6272" style="stop-color:#C5403F"/>
					<stop  offset="0.8727" style="stop-color:#B7302F"/>
					<stop  offset="1" style="stop-color:#AE2423"/>
				</linearGradient>
				<path style="fill:url(#SVGID_00000081639944669861119940000012395068432742597526_);" d="M390.496,425.449l-15.192-5.618
					c-1.03-0.38-2.214-0.166-3.113,0.553c-1.694,1.356-4.744,3.384-7.901,3.424c-2.733,0.034-5.366-0.897-7.111-1.695
					c-0.995-0.455-2.182,0.279-2.251,1.389l-0.452,7.283l38.457,0.427l-0.134-2.598
					C392.725,427.168,391.835,425.946,390.496,425.449z"/>
				<path style="fill:#FFFFFF;" d="M353.67,432.783l39.919,0.444c0.15,0.002,0.282-0.118,0.295-0.268l0.153-1.791
					c0.013-0.15-0.098-0.273-0.248-0.275l-39.975-0.443c-0.15-0.002-0.279,0.118-0.288,0.268l-0.11,1.791
					C353.406,432.659,353.52,432.782,353.67,432.783z"/>
				<path style="fill:#FFFFFF;" d="M375.93,423.686L375.93,423.686c0.287,0.122,0.637-0.017,0.779-0.31l1.351-2.784
					c0.142-0.293,0.024-0.632-0.263-0.755l0,0c-0.287-0.122-0.639,0.017-0.781,0.31l-1.35,2.784
					C375.524,423.224,375.643,423.563,375.93,423.686z"/>
				<path style="fill:#FFFFFF;" d="M380.298,425.349L380.298,425.349c0.286,0.122,0.637-0.017,0.779-0.31l1.358-2.784
					c0.143-0.293,0.026-0.633-0.261-0.755l0,0c-0.287-0.122-0.638,0.017-0.781,0.31l-1.356,2.784
					C379.894,424.887,380.012,425.227,380.298,425.349z"/>
			</g>
			<g>
				
					<linearGradient id="SVGID_00000155135630990573950020000000521635471501390773_" gradientUnits="userSpaceOnUse" x1="10782.1738" y1="377.127" x2="10766.9277" y2="394.3687" gradientTransform="matrix(-1 0 0 1 11186.4336 0)">
					<stop  offset="0" style="stop-color:#E9A78D"/>
					<stop  offset="1" style="stop-color:#ECCDB8"/>
				</linearGradient>
				<path style="fill:url(#SVGID_00000155135630990573950020000000521635471501390773_);" d="M404.022,376.35l5.924,10.229
					c0.955,2.177,3.251,3.437,5.758,3.159l20.888-2.315l1.141,2.699l-21.746,10.341l-10.313,4.536l-16.208-23.051
					C393.032,379.682,400.464,378.764,404.022,376.35z"/>
				
					<linearGradient id="SVGID_00000024716363620396556300000004169146603260574103_" gradientUnits="userSpaceOnUse" x1="10760.875" y1="390.2762" x2="10796.6318" y2="419.8725" gradientTransform="matrix(-1 0 0 1 11186.4336 0)">
					<stop  offset="0" style="stop-color:#CF4D4C"/>
					<stop  offset="0.354" style="stop-color:#CD4A49"/>
					<stop  offset="0.6272" style="stop-color:#C5403F"/>
					<stop  offset="0.8727" style="stop-color:#B7302F"/>
					<stop  offset="1" style="stop-color:#AE2423"/>
				</linearGradient>
				<path style="fill:url(#SVGID_00000024716363620396556300000004169146603260574103_);" d="M434.967,386.135l-16.933,2.174
					c-1.143,0.147-2.158,0.873-2.675,1.903c-0.974,1.942-2.917,5.087-5.859,6.573c-2.543,1.286-5.424,1.694-7.414,1.808
					c-1.133,0.065-1.908,1.243-1.473,2.233l2.844,6.495l36.462-17.395l-1.314-2.153
					C437.872,386.576,436.467,385.943,434.967,386.135z"/>
				<path style="fill:#FFFFFF;" d="M403.596,409.419l37.866-18.078c0.144-0.068,0.215-0.231,0.159-0.365l-0.67-1.597
					c-0.056-0.134-0.218-0.187-0.362-0.119l-37.899,18.078c-0.141,0.068-0.208,0.231-0.149,0.365l0.696,1.597
					C403.294,409.434,403.456,409.487,403.596,409.419z"/>
				<path style="fill:#FFFFFF;" d="M420.38,391.329L420.38,391.329c0.326-0.027,0.593-0.307,0.593-0.624l0.004-3.007
					c0-0.316-0.267-0.553-0.593-0.526l0,0c-0.327,0.027-0.594,0.307-0.594,0.624l-0.001,3.007
					C419.788,391.119,420.054,391.355,420.38,391.329z"/>
				<path style="fill:#FFFFFF;" d="M425.26,390.744L425.26,390.744c0.326-0.027,0.594-0.307,0.595-0.624l0.012-3.007
					c0.001-0.316-0.265-0.553-0.592-0.526l0,0c-0.327,0.027-0.595,0.307-0.596,0.624l-0.01,3.007
					C424.668,390.534,424.934,390.771,425.26,390.744z"/>
			</g>
			
				<linearGradient id="SVGID_00000141419820260516195530000017816327024916808344_" gradientUnits="userSpaceOnUse" x1="10869.3613" y1="213.9808" x2="10840.7578" y2="288.5518" gradientTransform="matrix(-1 0 0 1 11186.4336 0)">
				<stop  offset="0" style="stop-color:#D89D3C"/>
				<stop  offset="0.2836" style="stop-color:#D79A3A"/>
				<stop  offset="0.5324" style="stop-color:#D58F34"/>
				<stop  offset="0.7674" style="stop-color:#D17D2A"/>
				<stop  offset="0.994" style="stop-color:#CB641B"/>
				<stop  offset="1" style="stop-color:#CB631B"/>
			</linearGradient>
			<path style="fill:url(#SVGID_00000141419820260516195530000017816327024916808344_);" d="M332.903,261.778l13.459,26.742
				l23.912-3.68c0,0,1.91,15.099,1.492,15.226c-0.418,0.127-23.77,14.54-34.222,14.286c-10.455-0.254-14.187-16.951-14.187-16.951
				L332.903,261.778z"/>
			<g>
				
					<linearGradient id="SVGID_00000072243149721793154640000008520756197205741991_" gradientUnits="userSpaceOnUse" x1="10814.7559" y1="269.5272" x2="10807.1738" y2="288.0609" gradientTransform="matrix(-1 0 0 1 11186.4336 0)">
					<stop  offset="0" style="stop-color:#557ABF"/>
					<stop  offset="0.3325" style="stop-color:#5377BE"/>
					<stop  offset="0.5616" style="stop-color:#4D6EB9"/>
					<stop  offset="0.7596" style="stop-color:#435FB1"/>
					<stop  offset="0.9389" style="stop-color:#3549A7"/>
					<stop  offset="1" style="stop-color:#2F40A2"/>
				</linearGradient>
				<path style="fill:url(#SVGID_00000072243149721793154640000008520756197205741991_);" d="M373.82,312.001l8.321-0.93
					c0.179-0.02,0.408-0.42,0.512-0.894l7.28-32.737c0.107-0.474,0.062-0.912-0.102-0.978l-7.594-3.097
					c-0.335-0.158-0.468,0.281-0.586,0.816l-8.032,36.899C373.505,311.614,373.595,312.026,373.82,312.001z"/>
				<path style="fill:#FFFFFF;" d="M344.485,306.826l22.716,3.111c0.066,0.009,0.131-0.034,0.144-0.096l7.85-36.642
					c0.014-0.062-0.03-0.12-0.098-0.129l-23.174-3.111c-0.068-0.009-0.133,0.034-0.146,0.096l-7.389,36.642
					C344.374,306.759,344.418,306.817,344.485,306.826z"/>
				
					<linearGradient id="SVGID_00000059273176764713228190000006862979806137838523_" gradientUnits="userSpaceOnUse" x1="10822.0322" y1="264.6513" x2="10821.3945" y2="308.5651" gradientTransform="matrix(-1 0 0 1 11186.4336 0)">
					<stop  offset="0" style="stop-color:#597FC8"/>
					<stop  offset="0.3304" style="stop-color:#577CC7"/>
					<stop  offset="0.5581" style="stop-color:#5173C2"/>
					<stop  offset="0.7549" style="stop-color:#4764BB"/>
					<stop  offset="0.9331" style="stop-color:#394EB0"/>
					<stop  offset="1" style="stop-color:#3244AB"/>
				</linearGradient>
				<path style="fill:url(#SVGID_00000059273176764713228190000006862979806137838523_);" d="M348.892,308.684l23.35,3.202
					c0.646,0.089,1.276-0.332,1.406-0.939l7.974-36.633c0.134-0.607-0.292-1.172-0.952-1.261l-23.847-3.202
					c-0.663-0.089-1.302,0.332-1.427,0.939l-7.458,36.633C347.816,308.031,348.243,308.595,348.892,308.684z"/>
				<g>
					
						<linearGradient id="SVGID_00000093857966586658931090000012029099725317042342_" gradientUnits="userSpaceOnUse" x1="10796.2412" y1="295.6925" x2="10805.543" y2="295.6925" gradientTransform="matrix(-1 0 0 1 11186.4336 0)">
						<stop  offset="0" style="stop-color:#E9A78D"/>
						<stop  offset="1" style="stop-color:#ECCDB8"/>
					</linearGradient>
					<path style="fill:url(#SVGID_00000093857966586658931090000012029099725317042342_);" d="M382.085,294.126
						c0.18-0.816,1.173-1.368,2.208-1.228c-1.034-0.141-1.734-0.924-1.554-1.74c0.18-0.816,1.175-1.369,2.211-1.228l3.664,0.498
						c1.035,0.141,1.732,0.924,1.549,1.74c-0.183,0.816-1.179,1.369-2.213,1.228l0.508,0.069c1.034,0.141,1.729,0.923,1.546,1.739
						c-0.183,0.816-1.177,1.369-2.208,1.228l-0.507-0.069c1.032,0.141,1.727,0.923,1.544,1.74c-0.182,0.816-1.174,1.368-2.205,1.228
						l-0.101-0.014c0.166,0.273,0.234,0.587,0.163,0.908c-0.181,0.816-1.171,1.369-2.201,1.228l-2.024-0.277
						c-1.03-0.141-1.726-0.924-1.548-1.74c0.105-0.478,0.491-0.86,0.997-1.071c-0.387-0.333-0.588-0.795-0.483-1.273
						c0.179-0.816,1.171-1.369,2.204-1.228C382.604,295.725,381.905,294.943,382.085,294.126z"/>
					<path style="opacity:0.6;fill:#213138;" d="M384.622,292.933l3.137,0.427C387.759,293.36,386.827,293.685,384.622,292.933z"/>
					<path style="opacity:0.6;fill:#213138;" d="M383.963,295.914l3.132,0.427C387.094,296.341,386.164,296.666,383.963,295.914z"/>
					<path style="opacity:0.6;fill:#213138;" d="M382.411,298.653l3.618,0.531C386.029,299.184,384.965,299.481,382.411,298.653z"/>
				</g>
				
					<linearGradient id="SVGID_00000010996323837469217320000008376453966180311465_" gradientUnits="userSpaceOnUse" x1="10808.543" y1="264.493" x2="10807.9053" y2="308.3736" gradientTransform="matrix(-1 0 0 1 11186.4336 0)">
					<stop  offset="0" style="stop-color:#597FC8"/>
					<stop  offset="0.3304" style="stop-color:#577CC7"/>
					<stop  offset="0.5581" style="stop-color:#5173C2"/>
					<stop  offset="0.7549" style="stop-color:#4764BB"/>
					<stop  offset="0.9331" style="stop-color:#394EB0"/>
					<stop  offset="1" style="stop-color:#3244AB"/>
				</linearGradient>
				<path style="fill:url(#SVGID_00000010996323837469217320000008376453966180311465_);" d="M374.109,312.561L374.109,312.561
					c0.969,0.126,1.908-0.511,2.096-1.422l7.698-36.672c0.194-0.911-0.452-1.751-1.442-1.877l0,0
					c-0.991-0.126-1.95,0.511-2.143,1.422l-7.628,36.672C372.505,311.595,373.139,312.436,374.109,312.561z"/>
				
					<linearGradient id="SVGID_00000108290687720134661110000006297779137164333754_" gradientUnits="userSpaceOnUse" x1="10824.2852" y1="267.8471" x2="10817.4238" y2="279.5571" gradientTransform="matrix(-1 0 0 1 11186.4336 0)">
					<stop  offset="0" style="stop-color:#557ABF"/>
					<stop  offset="0.3325" style="stop-color:#5377BE"/>
					<stop  offset="0.5616" style="stop-color:#4D6EB9"/>
					<stop  offset="0.7596" style="stop-color:#435FB1"/>
					<stop  offset="0.9389" style="stop-color:#3549A7"/>
					<stop  offset="1" style="stop-color:#2F40A2"/>
				</linearGradient>
				<path style="fill:url(#SVGID_00000108290687720134661110000006297779137164333754_);" d="M372.691,310.684
					c3.13-12.089,5.706-24.422,7.628-36.672C377.13,286.1,374.573,298.435,372.691,310.684L372.691,310.684z"/>
				<g>
					<path style="fill:#AABBDF;" d="M347.5,306.438c0.053,0.004,0.103-0.031,0.113-0.081l7.078-34.819
						c0.011-0.052-0.027-0.101-0.083-0.108c-0.063-0.003-0.112,0.029-0.123,0.08l-7.074,34.819
						c-0.011,0.052,0.027,0.101,0.082,0.108C347.493,306.438,347.498,306.438,347.5,306.438z"/>
				</g>
				<g>
					<path style="fill:#AABBDF;" d="M346.772,306.252c0.053,0.004,0.103-0.031,0.113-0.081l7.064-34.819
						c0.011-0.052-0.027-0.101-0.083-0.108c-0.003,0-0.005,0-0.007,0c-0.054-0.004-0.105,0.031-0.115,0.081l-7.06,34.819
						c-0.011,0.052,0.027,0.101,0.082,0.108C346.765,306.252,346.769,306.252,346.772,306.252z"/>
				</g>
				<g>
					<path style="fill:#AABBDF;" d="M346.043,306.066c0.053,0.004,0.103-0.031,0.113-0.081l7.051-34.819
						c0.011-0.052-0.027-0.101-0.083-0.108c-0.056,0.003-0.112,0.029-0.122,0.08l-7.047,34.819c-0.01,0.052,0.027,0.101,0.082,0.108
						L346.043,306.066z"/>
				</g>
				<g>
					<path style="fill:#AABBDF;" d="M345.314,305.88c0.053,0.004,0.103-0.032,0.113-0.081l7.037-34.819
						c0.011-0.052-0.027-0.101-0.083-0.108c-0.002,0-0.005,0-0.005,0c-0.057-0.004-0.107,0.031-0.118,0.081l-7.033,34.819
						c-0.011,0.052,0.027,0.101,0.082,0.108C345.309,305.88,345.312,305.88,345.314,305.88z"/>
				</g>
			</g>
			<path style="fill:#213138;" d="M306.275,293.786l-0.012,0.13c-0.005,0.049-0.087,0.044-0.082-0.005l0.012-0.13
				C306.198,293.732,306.28,293.737,306.275,293.786z"/>
			<g>
				<g>
					<path style="fill:#213138;" d="M281.39,337.783l50.572-20.466c0.395-0.156,0.589-0.578,0.434-0.942l-2.123-4.977
						c-0.156-0.364-0.603-0.532-0.998-0.375l-51.843,20.746c-0.387,0.156-0.566,0.578-0.402,0.942l3.367,4.697
						C280.56,337.772,281.005,337.94,281.39,337.783z"/>
				</g>
				<path style="fill:#324952;" d="M280.294,331.733c0.278,0.719,0.59,1.424,0.896,2.132c0.272,0.633,0.613,1.258,0.673,1.948
					c0.006,0.072-0.08,0.122-0.137,0.064c-0.999-1.015-1.335-2.74-1.752-4.04C279.919,331.664,280.228,331.562,280.294,331.733z"/>
				<path style="fill:#324952;" d="M284.325,330.046c0.446,1.23,1.147,2.414,1.457,3.68c0.021,0.085-0.101,0.137-0.159,0.074
					c-0.909-0.99-1.29-2.401-1.595-3.658C283.989,329.982,284.266,329.885,284.325,330.046z"/>
				<path style="fill:#324952;" d="M289.756,327.976c0.27,0.546,0.41,1.148,0.648,1.708c0.243,0.572,0.528,1.114,0.737,1.699
					c0.029,0.082-0.067,0.149-0.136,0.085c-0.884-0.82-1.528-2.265-1.447-3.455C289.564,327.916,289.713,327.888,289.756,327.976z"
					/>
				<path style="fill:#324952;" d="M294.569,326.078c0.418,0.421,0.629,1.039,0.896,1.552c0.28,0.539,0.553,1.06,0.694,1.649
					c0.02,0.084-0.097,0.129-0.154,0.071c-0.469-0.473-0.756-1.024-1.028-1.616c-0.231-0.503-0.54-1.052-0.553-1.611
					C294.422,326.052,294.525,326.033,294.569,326.078z"/>
				<path style="fill:#324952;" d="M300.627,323.458c0.939,0.937,1.577,2.404,1.837,3.658c0.019,0.092-0.108,0.119-0.155,0.05
					c-0.408-0.602-0.74-1.228-1.066-1.872c-0.289-0.57-0.641-1.128-0.832-1.736C300.374,323.439,300.551,323.381,300.627,323.458z"
					/>
				<path style="fill:#324952;" d="M306.256,322.157c0.366,0.442,0.6,0.965,0.862,1.466c0.265,0.508,0.529,0.994,0.698,1.54
					c0.024,0.077-0.089,0.11-0.139,0.064c-0.789-0.74-1.458-1.946-1.56-3.007C306.111,322.153,306.204,322.094,306.256,322.157z"/>
				<path style="fill:#324952;" d="M314.72,319.204c0.433,0.656,0.937,1.412,0.931,2.215c0,0.066-0.093,0.083-0.134,0.042
					c-0.424-0.422-0.642-0.978-0.918-1.491c-0.136-0.253-0.278-0.502-0.419-0.753c-0.115-0.205-0.263-0.732-0.474-0.863
					c-0.023-0.014-0.016-0.044,0.006-0.056C314.107,318.076,314.556,318.954,314.72,319.204z"/>
				<path style="fill:#324952;" d="M319.236,316.224c0.417,0.344,0.629,0.891,0.85,1.36c0.264,0.563,0.528,1.121,0.57,1.745
					c0.005,0.082-0.103,0.151-0.167,0.076c-0.413-0.475-0.629-1.042-0.857-1.613c-0.193-0.484-0.467-1.021-0.441-1.548
					C319.191,316.226,319.219,316.211,319.236,316.224z"/>
				<path style="fill:#324952;" d="M323.649,315.144c0.482,0.82,1.035,1.708,1.156,2.658c0.013,0.104-0.131,0.183-0.207,0.094
					c-0.642-0.75-0.928-1.753-1.221-2.666C323.329,315.079,323.576,315.02,323.649,315.144z"/>
			</g>
			
				<linearGradient id="SVGID_00000108267202552735356250000001904990305762695865_" gradientUnits="userSpaceOnUse" x1="10899.5703" y1="239.1342" x2="10847.7275" y2="314.9823" gradientTransform="matrix(-1 0 0 1 11186.4336 0)">
				<stop  offset="0" style="stop-color:#DFA23E"/>
				<stop  offset="0.2793" style="stop-color:#DE9F3C"/>
				<stop  offset="0.5244" style="stop-color:#DC9436"/>
				<stop  offset="0.7567" style="stop-color:#D8822C"/>
				<stop  offset="0.9798" style="stop-color:#D3691E"/>
				<stop  offset="1" style="stop-color:#D2661C"/>
			</linearGradient>
			<path style="fill:url(#SVGID_00000108267202552735356250000001904990305762695865_);" d="M297.331,285.728
				c-8.277-2.726-15.692-8.194-20.161-15.268c1.776-5.641-1.715-7.983,1.565-10.938c6.418-5.754,24.608-10.004,24.608-10.004
				c14.413,0.48,29.484,5.137,29.799,13.894c0.125,3.519-0.923,7.537-2.011,11.955c-0.038,0.155-0.076,0.312-0.114,0.467
				c-0.058,0.237-0.116,0.474-0.174,0.714c-0.091,0.378-0.182,0.76-0.271,1.143c-0.033,0.142-0.065,0.285-0.098,0.428
				c-0.064,0.277-0.127,0.556-0.189,0.836c-0.036,0.16-0.07,0.32-0.105,0.481c-0.038,0.176-0.074,0.353-0.112,0.53
				C319.083,283.731,308.107,289.248,297.331,285.728z"/>
			
				<linearGradient id="SVGID_00000128487516483336132040000000087861014184550314_" gradientUnits="userSpaceOnUse" x1="10909.9346" y1="229.5433" x2="10881.332" y2="304.1144" gradientTransform="matrix(-1 0 0 1 11186.4336 0)">
				<stop  offset="0" style="stop-color:#D89D3C"/>
				<stop  offset="0.2836" style="stop-color:#D79A3A"/>
				<stop  offset="0.5324" style="stop-color:#D58F34"/>
				<stop  offset="0.7674" style="stop-color:#D17D2A"/>
				<stop  offset="0.994" style="stop-color:#CB641B"/>
				<stop  offset="1" style="stop-color:#CB631B"/>
			</linearGradient>
			<path style="fill:url(#SVGID_00000128487516483336132040000000087861014184550314_);" d="M274.352,298.937
				c0.018-0.551,0.032-1.105,0.042-1.662c0.002-0.102,0.002-0.204,0.004-0.306c0.007-0.476,0.01-0.954,0.009-1.435
				c-0.001-0.257-0.006-0.517-0.009-0.776c-0.004-0.353-0.007-0.706-0.016-1.062c-0.017-0.626-0.04-1.255-0.073-1.89
				c-0.001-0.013-0.001-0.025-0.002-0.038c0-0.001,0-0.003,0-0.004c-0.037-0.697-0.058-1.417-0.062-2.157c0-0.003,0-0.006,0-0.009
				c-0.032-5.836,0.965-12.873,2.925-19.139c4.469,7.074,13.673,1.975,18.681,8.61c7.552,10.102,23.232,4.66,34.217,0.897
				c-0.024,0.114-0.048,0.227-0.072,0.342c-0.029,0.141-0.058,0.28-0.087,0.421c-0.084,0.42-0.165,0.843-0.242,1.269
				c-0.017,0.096-0.033,0.192-0.049,0.288c-0.06,0.341-0.117,0.683-0.171,1.027c-0.024,0.151-0.046,0.303-0.068,0.455
				c-0.045,0.304-0.087,0.61-0.127,0.916c-0.02,0.152-0.04,0.304-0.058,0.457c-0.047,0.387-0.089,0.775-0.125,1.166
				c-0.006,0.064-0.014,0.127-0.02,0.191c-0.04,0.448-0.072,0.9-0.098,1.354c-0.008,0.139-0.013,0.279-0.019,0.419
				c-0.015,0.328-0.027,0.657-0.033,0.987c-0.003,0.158-0.006,0.316-0.007,0.475c-0.003,0.349,0.001,0.7,0.008,1.052
				c0.003,0.123,0.003,0.245,0.007,0.368c0.015,0.469,0.039,0.941,0.074,1.414c0.008,0.104,0.02,0.208,0.028,0.312
				c0.031,0.376,0.069,0.753,0.114,1.131c0.019,0.157,0.04,0.314,0.061,0.471c0.047,0.346,0.1,0.694,0.159,1.042
				c0.025,0.149,0.049,0.297,0.076,0.446c0.09,0.488,0.188,0.978,0.304,1.471c0.197,0.839,0.363,1.631,0.501,2.378
				c1.322,7.19,0.094,10.255-0.954,11.531c-0.586,0.714-1.116,0.869-1.116,0.869l-21.952,9.447l-4.449,1.927
				c-11.115-0.223-21.42-3.852-28.183-12.452C273.831,307.2,274.21,303.163,274.352,298.937L274.352,298.937z"/>
			
				<linearGradient id="SVGID_00000117670046785515147720000009416984678434125736_" gradientUnits="userSpaceOnUse" x1="10939.1514" y1="266.188" x2="10887.3086" y2="342.0363" gradientTransform="matrix(-1 0 0 1 11186.4336 0)">
				<stop  offset="0" style="stop-color:#DFA23E"/>
				<stop  offset="0.2793" style="stop-color:#DE9F3C"/>
				<stop  offset="0.5244" style="stop-color:#DC9436"/>
				<stop  offset="0.7567" style="stop-color:#D8822C"/>
				<stop  offset="0.9798" style="stop-color:#D3691E"/>
				<stop  offset="1" style="stop-color:#D2661C"/>
			</linearGradient>
			<path style="fill:url(#SVGID_00000117670046785515147720000009416984678434125736_);" d="M301.752,323.594l-23.64,7.9
				c0,0-3.965,0.264-4.667-9.321c-0.268-3.638-0.124-7.292,0.124-11.031C280.331,319.741,290.637,323.37,301.752,323.594z"/>
			<g>
				
					<linearGradient id="SVGID_00000057138775290853419020000011055987400748137623_" gradientUnits="userSpaceOnUse" x1="10830.5967" y1="277.9178" x2="10849.9648" y2="292.5727" gradientTransform="matrix(-1 0 0 1 11186.4336 0)">
					<stop  offset="0" style="stop-color:#E9A78D"/>
					<stop  offset="1" style="stop-color:#ECCDB8"/>
				</linearGradient>
				<path style="fill:url(#SVGID_00000057138775290853419020000011055987400748137623_);" d="M337.973,286.583
					c0,0,4.3-4.624,6.438-5.747c1.469-0.771,3.485-0.909,4.605-0.919c0.467-0.004,0.829,0.339,0.818,0.767l-0.032,1.187
					c-0.01,0.371,0.263,0.688,0.656,0.761l6.563,1.221c0,0,5.59,0.886,8.294,1.209c0.708,0.085,1.051,0.816,0.647,1.38l-0.736,1.029
					c0.441,0.827-0.533,1.809-2.033,2.848c0.005,0.935-0.14,1.835-1.718,2.414l-1.081,1.521c-0.56,0.789-1.424,1.357-2.405,1.58
					l-3.424,0.78c-0.65,0.148-1.323,0.151-1.961,0.008l-8.845-1.975c-0.718-0.16-1.477-0.131-2.192,0.085l-39.553,20.683
					l-4.164-13.631L337.973,286.583z"/>
				
					<linearGradient id="SVGID_00000127739393772609880140000007278362884651237822_" gradientUnits="userSpaceOnUse" x1="10821.5762" y1="287.3485" x2="10834.7588" y2="287.3485" gradientTransform="matrix(-1 0 0 1 11186.4336 0)">
					<stop  offset="0" style="stop-color:#E9A78D"/>
					<stop  offset="1" style="stop-color:#ECCDB8"/>
				</linearGradient>
				<path style="opacity:0.4;fill:url(#SVGID_00000127739393772609880140000007278362884651237822_);" d="M364.858,287.35
					c-2.229-0.148-4.45-0.089-6.647-0.093c-1.1,0.021-2.139-0.078-3.233-0.228l-1.634-0.219l-0.829-0.089
					c-0.273-0.017-0.564-0.086-0.838-0.003c0.524,0.075,1.04,0.299,1.56,0.456c0.523,0.159,1.05,0.312,1.589,0.438
					c0.536,0.135,1.086,0.232,1.646,0.314c0.572,0.069,1.142,0.083,1.702,0.093C360.417,287.997,362.643,287.799,364.858,287.35z"/>
				
					<linearGradient id="SVGID_00000034064132221731044110000004761129418557220998_" gradientUnits="userSpaceOnUse" x1="10823.71" y1="290.8433" x2="10835.2188" y2="290.8433" gradientTransform="matrix(-1 0 0 1 11186.4336 0)">
					<stop  offset="0" style="stop-color:#E9A78D"/>
					<stop  offset="1" style="stop-color:#ECCDB8"/>
				</linearGradient>
				<path style="opacity:0.4;fill:url(#SVGID_00000034064132221731044110000004761129418557220998_);" d="M362.723,290.172
					c-0.992,0.037-1.969,0.133-2.941,0.239c-0.972,0.1-1.94,0.232-2.892,0.312c-0.934,0.118-1.835-0.004-2.797-0.121
					c-0.948-0.126-1.902-0.277-2.879-0.394c0.863,0.42,1.776,0.736,2.722,0.976c0.472,0.126,0.958,0.213,1.457,0.283
					c0.497,0.064,1.046,0.058,1.538,0.014c1-0.1,1.972-0.267,2.937-0.488C360.833,290.776,361.788,290.517,362.723,290.172z"/>
				
					<linearGradient id="SVGID_00000100351861765838759260000009523096753129337217_" gradientUnits="userSpaceOnUse" x1="10825.6689" y1="293.7584" x2="10834.9521" y2="293.7584" gradientTransform="matrix(-1 0 0 1 11186.4336 0)">
					<stop  offset="0" style="stop-color:#E9A78D"/>
					<stop  offset="1" style="stop-color:#ECCDB8"/>
				</linearGradient>
				<path style="opacity:0.4;fill:url(#SVGID_00000100351861765838759260000009523096753129337217_);" d="M360.764,292.733
					c-0.804,0.153-1.579,0.355-2.348,0.563c-0.769,0.199-1.53,0.432-2.277,0.594c-0.723,0.183-1.482,0.204-2.269,0.237
					c-0.783,0.024-1.576,0.029-2.389,0.072c0.747,0.27,1.531,0.433,2.333,0.522c0.794,0.089,1.647,0.104,2.485-0.091
					c0.813-0.193,1.574-0.462,2.318-0.78C359.36,293.532,360.084,293.175,360.764,292.733z"/>
			</g>
			
				<linearGradient id="SVGID_00000104698158972478289010000008974864436879804342_" gradientUnits="userSpaceOnUse" x1="10913.4688" y1="248.6338" x2="10861.626" y2="324.4821" gradientTransform="matrix(-1 0 0 1 11186.4336 0)">
				<stop  offset="0" style="stop-color:#DFA23E"/>
				<stop  offset="0.2793" style="stop-color:#DE9F3C"/>
				<stop  offset="0.5244" style="stop-color:#DC9436"/>
				<stop  offset="0.7567" style="stop-color:#D8822C"/>
				<stop  offset="0.9798" style="stop-color:#D3691E"/>
				<stop  offset="1" style="stop-color:#D2661C"/>
			</linearGradient>
			<path style="fill:url(#SVGID_00000104698158972478289010000008974864436879804342_);" d="M286.582,256.596
				c0,0,7.879,1.7,8.611,15.225c0.719,13.525,3.001,23.976,3.001,23.976s21.316-11.255,37.388-9.79l2.867,13.23
				c0,0-11.502,18.491-43.658,19.026c-25.664,0.427-27.11-38.345-22.818-51.478C273.786,261.293,280.149,258.182,286.582,256.596z"
				/>
			<path style="fill:#BA5044;" d="M297.938,295.768c0.126-0.034,0.17,0.134,0.068,0.189c-5.249,2.84-6.863,9.344-7.765,14.442
				c-0.028,0.161-0.258,0.146-0.268-0.013C289.663,305.483,292.071,297.361,297.938,295.768z"/>
			<path style="fill:#BA5044;" d="M294.055,296.449c0.087-0.001,0.088,0.117,0.009,0.135c-4.058,0.969-7.247,3.073-9.564,6.309
				c-0.075,0.105-0.264,0.022-0.216-0.099C285.776,299.082,289.769,296.481,294.055,296.449z"/>
			<path style="fill:#213138;" d="M302.946,250.869"/>
			<g>
				
					<linearGradient id="SVGID_00000047776969790690942870000001193872452765855360_" gradientUnits="userSpaceOnUse" x1="10770.0586" y1="-358.0749" x2="10797.3848" y2="-378.7614" gradientTransform="matrix(-0.9932 0.1162 0.1162 0.9932 11068.0732 -650.4167)">
					<stop  offset="0" style="stop-color:#5E2D15"/>
					<stop  offset="1" style="stop-color:#7D4911"/>
				</linearGradient>
				<path style="fill:url(#SVGID_00000047776969790690942870000001193872452765855360_);" d="M304.002,240.105
					c0,0-2.265,0.251-3.765-1.245c-1.503-1.496,1.783-6.889,1.123-14.184c-0.659-7.295,5.683-3.406,5.683-3.406l2.422,10.872
					L304.002,240.105z"/>
				<g>
					<path style="fill:#EEBE9D;" d="M300.146,253.5c-1.118,4.59,14.037,7.053,15.194,2.463l7.085-27.652l-15.428-2.464
						l-5.987,24.122L300.146,253.5z"/>
					<path style="fill:#E9A785;" d="M322.078,228.256c0.113,0.033,0.224,0.066,0.335,0.1l-6.367,24.818
						c-15.701-7.05-9.522-22.241-7.057-27.008L322.078,228.256z"/>
				</g>
				<path style="fill:#EEBE9D;" d="M303.581,232.485c-1.033,9.161,6.596,17.046,14.2,17.461c5.63,0.309,9.851-6.888,12.132-15.943
					c3.034-11.877-2.685-16.986-10.407-17.387C311.773,216.215,304.632,223.322,303.581,232.485z"/>
				
					<linearGradient id="SVGID_00000031916066881485839040000010566453030880035221_" gradientUnits="userSpaceOnUse" x1="10762.252" y1="-368.3873" x2="10789.5781" y2="-389.0738" gradientTransform="matrix(-0.9932 0.1162 0.1162 0.9932 11068.0732 -650.4167)">
					<stop  offset="0" style="stop-color:#5E2D15"/>
					<stop  offset="1" style="stop-color:#7D4911"/>
				</linearGradient>
				<path style="fill:url(#SVGID_00000031916066881485839040000010566453030880035221_);" d="M308.142,215.139
					c0,0,5.644-4.018,11.247-2.589c5.592,1.431,10.376,6.344,10.376,6.344s0.35-4.849,4.199-3.208
					c2.883,1.232,3.803,6.882,2.143,10.414c0.396-0.493,0.727-1.037,0.966-1.602c1.059-2.503,0.411-5.045-0.431-7.409
					c-0.017-0.046,0.056-0.08,0.08-0.035c1.471,2.777,2.096,6.318,0.02,9.194c-0.573,0.795-1.455,1.555-2.426,2.037
					c-0.23,0.154-0.473,0.288-0.735,0.395c-4.574,1.865-9.904-2.408-9.904-2.408s-0.602,2.029-3.584,0.819
					c-2.986-1.21-4.129-2.887-4.129-2.887s-0.73,1.913-3.62-0.864c0,0,0.173,3.634-2.578,5.376c-1.959,1.242-2.558,3.322-2.74,4.414
					c-0.063,0.379-0.474,0.636-0.882,0.551l-1.216-0.254c0,0-1.225-2.688-1.817-3.929
					C302.518,228.257,296.808,217.843,308.142,215.139z"/>
				<g>
					<path style="fill:#EEBE9D;" d="M298.091,232.295c-0.26,2.344,1.294,4.338,3.468,4.454c2.173,0.116,3.884,0.653,4.152-1.692
						c0.269-2.345-1.01-6.685-3.193-6.8C300.334,228.142,298.351,229.95,298.091,232.295z"/>
					<path style="fill:#E9A785;" d="M303.375,232.503c-0.002-0.376-0.075-0.745-0.198-1.108c-0.138-0.356-0.308-0.727-0.699-1.017
						c-0.202-0.136-0.476-0.253-0.777-0.232c-0.148-0.003-0.281,0.045-0.421,0.074c-0.13,0.058-0.269,0.125-0.385,0.202
						c-0.439,0.341-0.607,0.761-0.735,1.154c-0.223,0.801-0.163,1.62,0.182,2.352c0.169,0.367,0.46,0.693,0.815,0.928
						c0.374,0.229,0.834,0.291,1.243,0.239c-0.395-0.119-0.732-0.271-0.962-0.527c-0.224-0.254-0.38-0.543-0.47-0.862
						c-0.167-0.631-0.179-1.337,0.014-1.965c0.078-0.312,0.232-0.621,0.425-0.783c0.048-0.035,0.093-0.059,0.14-0.097
						c0.059-0.009,0.121-0.05,0.177-0.049c0.112-0.021,0.228,0.007,0.362,0.059C302.622,231.171,303.019,231.866,303.375,232.503z"
						/>
				</g>
				
					<linearGradient id="SVGID_00000074431880908884354840000009163627498298256789_" gradientUnits="userSpaceOnUse" x1="10757.2412" y1="-375.0062" x2="10784.5684" y2="-395.6927" gradientTransform="matrix(-0.9932 0.1162 0.1162 0.9932 11068.0732 -650.4167)">
					<stop  offset="0" style="stop-color:#5E2D15"/>
					<stop  offset="1" style="stop-color:#7D4911"/>
				</linearGradient>
				<path style="fill:url(#SVGID_00000074431880908884354840000009163627498298256789_);" d="M322.902,213.904
					c8.956,4.265,10.159-4.059,10.159-4.059s12.304,7.367,6.288,18.034c-6.016,10.667-27.006-4.541-27.006-4.541L322.902,213.904z"
					/>
			</g>
			<g>
				
					<linearGradient id="SVGID_00000039848262109733768790000012239176764570535061_" gradientUnits="userSpaceOnUse" x1="10822.1299" y1="344.9248" x2="10823.1523" y2="421.3376" gradientTransform="matrix(-1 0 0 1 11186.4336 0)">
					<stop  offset="0" style="stop-color:#36366B"/>
					<stop  offset="1" style="stop-color:#484883"/>
				</linearGradient>
				<path style="fill:url(#SVGID_00000039848262109733768790000012239176764570535061_);" d="M376.969,355.362l-2.357,50.72
					c0,0-4.38,5.12-19.931-0.135l-3.086-68.258l8.217-3.678c8.221-3.665,17.304,1.581,17.244,9.981L376.969,355.362z"/>
				
					<linearGradient id="SVGID_00000103979846672191185070000017874530220508882362_" gradientUnits="userSpaceOnUse" x1="10859.8311" y1="324.9435" x2="10808.8047" y2="366.2878" gradientTransform="matrix(-1 0 0 1 11186.4336 0)">
					<stop  offset="0" style="stop-color:#676795"/>
					<stop  offset="1" style="stop-color:#484883"/>
				</linearGradient>
				<path style="fill:url(#SVGID_00000103979846672191185070000017874530220508882362_);" d="M282.24,337.436
					c0,0,3.4,8.736,10.73,9.695c24.268,3.183,64.314-9.009,69.042-5.841c0.644,0.432,27.63,46.149,27.63,46.149
					s20.926-10.284,20.034-10.003c-0.892,0.281-27.252-59.868-31.824-62.359c-4.585-2.491-45.889,2.24-45.889,2.24
					S306.501,322.857,282.24,337.436z"/>
				
					<linearGradient id="SVGID_00000163773309855396770140000008423316067818602922_" gradientUnits="userSpaceOnUse" x1="10819.4961" y1="333.3009" x2="10824.418" y2="333.3009" gradientTransform="matrix(-1 0 0 1 11186.4336 0)">
					<stop  offset="0" style="stop-color:#36366B"/>
					<stop  offset="1" style="stop-color:#484883"/>
				</linearGradient>
				<path style="fill:url(#SVGID_00000163773309855396770140000008423316067818602922_);" d="M366.783,326.823
					c0.086-0.074,0.19,0.019,0.143,0.108c-1.086,2.046-2.369,3.977-3.172,6.139c-0.799,2.156-1.185,4.383-1.428,6.624
					c-0.013,0.119-0.222,0.163-0.236,0.03C361.65,335.392,363.158,329.947,366.783,326.823z"/>
				
					<linearGradient id="SVGID_00000078042668760436869830000004663491917184919447_" gradientUnits="userSpaceOnUse" x1="10827.1318" y1="332.6718" x2="10828.0439" y2="332.6718" gradientTransform="matrix(-1 0 0 1 11186.4336 0)">
					<stop  offset="0" style="stop-color:#36366B"/>
					<stop  offset="1" style="stop-color:#484883"/>
				</linearGradient>
				<path style="fill:url(#SVGID_00000078042668760436869830000004663491917184919447_);" d="M358.646,327.927
					c0.019-0.159,0.249-0.154,0.259,0c0.216,3.131,0.457,6.287,0.383,9.44c-0.004,0.194-0.319,0.235-0.36,0.046
					C358.258,334.318,358.275,331.094,358.646,327.927z"/>
				
					<linearGradient id="SVGID_00000022553506899996319880000009917870707310412959_" gradientUnits="userSpaceOnUse" x1="10880.6836" y1="333.4543" x2="10888.9844" y2="333.4543" gradientTransform="matrix(-1 0 0 1 11186.4336 0)">
					<stop  offset="0" style="stop-color:#36366B"/>
					<stop  offset="1" style="stop-color:#484883"/>
				</linearGradient>
				<path style="fill:url(#SVGID_00000022553506899996319880000009917870707310412959_);" d="M297.485,339.515
					c1.795-1.618,3.877-3.113,5.289-5.068c1.626-2.246,1.781-4.811,2.898-7.223c0.012-0.024,0.048-0.022,0.05,0.006
					c0.38,5.516-3.154,9.976-8.098,12.457C297.509,339.745,297.386,339.604,297.485,339.515z"/>
			</g>
		</g>
		
			<linearGradient id="SVGID_00000098191431911806878720000014381347274259858609_" gradientUnits="userSpaceOnUse" x1="183.1406" y1="297.8381" x2="181.353" y2="316.7364">
			<stop  offset="0" style="stop-color:#DFA23E"/>
			<stop  offset="0.2793" style="stop-color:#DE9F3C"/>
			<stop  offset="0.5244" style="stop-color:#DC9436"/>
			<stop  offset="0.7567" style="stop-color:#D8822C"/>
			<stop  offset="0.9798" style="stop-color:#D3691E"/>
			<stop  offset="1" style="stop-color:#D2661C"/>
		</linearGradient>
		<path style="fill:url(#SVGID_00000098191431911806878720000014381347274259858609_);" d="M177.287,349.085h-56.928
			c-1.1,0-1.992-0.931-1.992-2.08v0c0-1.149,0.892-2.08,1.992-2.08h112.386c0.251,0,0.473,0.165,0.556,0.413
			c0.992,2.943,6.582,21.238-0.007,41.974c-0.08,0.253-0.309,0.425-0.564,0.425H120.359c-1.1,0-1.992-0.931-1.992-2.08
			c0-1.149,0.892-2.08,1.992-2.08h56.902c0.266,0,0.502-0.188,0.573-0.456c4.552-17.229,0.796-31.058,0.013-33.611
			C177.769,349.253,177.543,349.085,177.287,349.085z"/>
		
			<linearGradient id="SVGID_00000010279160204711625610000018428307690029124282_" gradientUnits="userSpaceOnUse" x1="180.3221" y1="330.0545" x2="172.229" y2="389.6669">
			<stop  offset="0" style="stop-color:#FFFFFF"/>
			<stop  offset="0.2836" style="stop-color:#FAFCFF"/>
			<stop  offset="0.6369" style="stop-color:#EAF5FE"/>
			<stop  offset="1" style="stop-color:#D3E9FD"/>
		</linearGradient>
		<path style="fill:url(#SVGID_00000010279160204711625610000018428307690029124282_);" d="M229.402,349.085
			c0,0,5.253,15.164,0,34.49H120.822v-34.49H229.402z"/>
		<g>
			
				<linearGradient id="SVGID_00000027605439260997029830000000247705383133928374_" gradientUnits="userSpaceOnUse" x1="127.4182" y1="356.7916" x2="217.8228" y2="356.7916">
				<stop  offset="0" style="stop-color:#D5E7FB"/>
				<stop  offset="0.2449" style="stop-color:#D1E5FB"/>
				<stop  offset="0.5124" style="stop-color:#C3DEFB"/>
				<stop  offset="0.7896" style="stop-color:#AED4FC"/>
				<stop  offset="1" style="stop-color:#98C9FC"/>
			</linearGradient>
			<path style="fill:url(#SVGID_00000027605439260997029830000000247705383133928374_);" d="M217.823,356.791
				c-29.986-1.619-60.418-1.606-90.405,0C157.405,358.398,187.837,358.411,217.823,356.791z"/>
			
				<linearGradient id="SVGID_00000159433241112250835300000007611636471920870842_" gradientUnits="userSpaceOnUse" x1="160.6178" y1="365.6631" x2="225.1012" y2="365.6631">
				<stop  offset="0" style="stop-color:#D5E7FB"/>
				<stop  offset="0.2449" style="stop-color:#D1E5FB"/>
				<stop  offset="0.5124" style="stop-color:#C3DEFB"/>
				<stop  offset="0.7896" style="stop-color:#AED4FC"/>
				<stop  offset="1" style="stop-color:#98C9FC"/>
			</linearGradient>
			<path style="fill:url(#SVGID_00000159433241112250835300000007611636471920870842_);" d="M160.618,365.663
				c21.469,1.36,43.014,1.371,64.483,0C203.632,364.292,182.087,364.303,160.618,365.663z"/>
			
				<linearGradient id="SVGID_00000020398337927554048750000010373668109334239422_" gradientUnits="userSpaceOnUse" x1="140.9533" y1="375.7255" x2="205.4367" y2="375.7255">
				<stop  offset="0" style="stop-color:#D5E7FB"/>
				<stop  offset="0.2449" style="stop-color:#D1E5FB"/>
				<stop  offset="0.5124" style="stop-color:#C3DEFB"/>
				<stop  offset="0.7896" style="stop-color:#AED4FC"/>
				<stop  offset="1" style="stop-color:#98C9FC"/>
			</linearGradient>
			<path style="fill:url(#SVGID_00000020398337927554048750000010373668109334239422_);" d="M140.953,375.725
				c21.47,1.36,43.014,1.371,64.483,0C183.967,374.354,162.423,374.365,140.953,375.725z"/>
		</g>
		<g>
			
				<linearGradient id="SVGID_00000080911373242267506300000008505840120743115960_" gradientUnits="userSpaceOnUse" x1="346.102" y1="95.2827" x2="321.0961" y2="170.4764">
				<stop  offset="0" style="stop-color:#72B2F9"/>
				<stop  offset="1" style="stop-color:#9BC8F9"/>
			</linearGradient>
			<polygon style="fill:url(#SVGID_00000080911373242267506300000008505840120743115960_);" points="349.68,136.782 345.36,136.782 
				300.134,161.138 353.375,145.785 			"/>
			
				<linearGradient id="SVGID_00000111192970316953421970000012180079899192901506_" gradientUnits="userSpaceOnUse" x1="345.0747" y1="88.3146" x2="318.0267" y2="169.6489">
				<stop  offset="0" style="stop-color:#FFFFFF"/>
				<stop  offset="0.2836" style="stop-color:#FAFCFF"/>
				<stop  offset="0.6369" style="stop-color:#EAF5FE"/>
				<stop  offset="1" style="stop-color:#D3E9FD"/>
			</linearGradient>
			<polygon style="fill:url(#SVGID_00000111192970316953421970000012180079899192901506_);" points="336.238,128.977 
				300.134,161.138 349.68,136.782 			"/>
			
				<linearGradient id="SVGID_00000048486190505343609330000014315356300008901274_" gradientUnits="userSpaceOnUse" x1="356.1247" y1="102.6951" x2="332.3759" y2="174.1086">
				<stop  offset="0" style="stop-color:#FFFFFF"/>
				<stop  offset="0.2836" style="stop-color:#FAFCFF"/>
				<stop  offset="0.6369" style="stop-color:#EAF5FE"/>
				<stop  offset="1" style="stop-color:#D3E9FD"/>
			</linearGradient>
			<polygon style="fill:url(#SVGID_00000048486190505343609330000014315356300008901274_);" points="300.134,161.138 
				356.966,141.258 376.014,152.811 			"/>
		</g>
		
			<linearGradient id="SVGID_00000088112199042090187050000017585340299486867105_" gradientUnits="userSpaceOnUse" x1="504.1481" y1="1870.6478" x2="527.7323" y2="1870.6478" gradientTransform="matrix(0.9492 0.3147 -0.3147 0.9492 483.8358 -1735.0614)">
			<stop  offset="0" style="stop-color:#D5E7FB"/>
			<stop  offset="0.2449" style="stop-color:#D1E5FB"/>
			<stop  offset="0.5124" style="stop-color:#C3DEFB"/>
			<stop  offset="0.7896" style="stop-color:#AED4FC"/>
			<stop  offset="1" style="stop-color:#98C9FC"/>
		</linearGradient>
		<path style="fill:url(#SVGID_00000088112199042090187050000017585340299486867105_);" d="M389.635,193.641l0.705,5.067
			c0.081,0.581,0.442,1.085,0.966,1.347l4.573,2.292c1.32,0.661,1.308,2.55-0.019,3.195l-4.601,2.236
			c-0.527,0.256-0.895,0.756-0.983,1.335l-0.766,5.058c-0.221,1.46-2.02,2.033-3.044,0.969l-3.548-3.685
			c-0.407-0.422-0.995-0.618-1.574-0.522l-5.047,0.834c-1.457,0.241-2.557-1.294-1.862-2.596l2.408-4.513
			c0.276-0.517,0.28-1.137,0.01-1.658l-2.353-4.542c-0.679-1.311,0.44-2.832,1.894-2.573l5.036,0.895
			c0.577,0.103,1.168-0.085,1.58-0.503l3.593-3.641C387.639,191.584,389.431,192.179,389.635,193.641z"/>
		
			<linearGradient id="SVGID_00000182522965548351599220000013350838854083701660_" gradientUnits="userSpaceOnUse" x1="1374.3608" y1="3908.4851" x2="1350.8925" y2="3963.6006" gradientTransform="matrix(0.7724 0.6351 -0.6351 0.7724 1887.2605 -3534.9756)">
			<stop  offset="0" style="stop-color:#D5E7FB"/>
			<stop  offset="0.2449" style="stop-color:#D1E5FB"/>
			<stop  offset="0.5124" style="stop-color:#C3DEFB"/>
			<stop  offset="0.7896" style="stop-color:#AED4FC"/>
			<stop  offset="1" style="stop-color:#98C9FC"/>
		</linearGradient>
		<path style="fill:url(#SVGID_00000182522965548351599220000013350838854083701660_);" d="M448.399,360.087l-1.934,2.09
			c-0.222,0.24-0.547,0.355-0.87,0.308l-2.818-0.409c-0.813-0.118-1.409,0.748-1.008,1.465l1.39,2.485
			c0.159,0.285,0.168,0.63,0.024,0.923l-1.26,2.554c-0.363,0.737,0.276,1.571,1.082,1.411l2.793-0.554
			c0.32-0.063,0.651,0.035,0.885,0.263l2.039,1.987c0.589,0.574,1.579,0.223,1.677-0.593l0.337-2.827
			c0.038-0.324,0.234-0.608,0.523-0.76l2.52-1.326c0.727-0.383,0.7-1.433-0.046-1.778l-2.585-1.194
			c-0.296-0.137-0.506-0.411-0.562-0.732l-0.482-2.806C449.965,359.782,448.957,359.483,448.399,360.087z"/>
	</g>
</g>
<g id="TEXTS">
</g>
</svg>
