<?xml version="1.0" encoding="utf-8"?>
<!-- Generator: Adobe Illustrator 27.5.0, SVG Export Plug-In . SVG Version: 6.00 Build 0)  -->
<svg version="1.1" xmlns="http://www.w3.org/2000/svg" xmlns:xlink="http://www.w3.org/1999/xlink" x="0px" y="0px"
	 viewBox="0 0 450 450" style="enable-background:new 0 0 450 450;" xml:space="preserve">
<g id="Layer_1">
	<g>
		<defs>
			<path id="SVGID_1_" d="M321.387,358.853c-27.135,19.596-60.434,31.161-96.387,31.161c-90.988,0-165.014-74.024-165.014-165.014
				c0-35.953,11.565-69.251,31.161-96.387L321.387,358.853z M358.852,321.387c19.596-27.135,31.161-60.434,31.161-96.387
				c0-90.989-74.025-165.014-165.014-165.014c-35.953,0-69.251,11.565-96.387,31.161L358.852,321.387z"/>
		</defs>
		<clipPath id="SVGID_00000148662190727510713430000007297743828262734721_">
			<use xlink:href="#SVGID_1_"  style="overflow:visible;"/>
		</clipPath>
		<g style="clip-path:url(#SVGID_00000148662190727510713430000007297743828262734721_);">
			<path d="M145.679,275.93l218.375-58.513l7.827,29.21L153.505,305.14L145.679,275.93z M140.189,308.707l6.658-1.784l-7.827-29.21
				l-6.658,1.785L140.189,308.707z M126.874,312.274l6.658-1.783l-7.827-29.21l-6.658,1.784L126.874,312.274z M113.559,315.843
				l6.658-1.783l-7.827-29.21l-6.658,1.784L113.559,315.843z"/>
			
				<linearGradient id="SVGID_00000157295560057795718810000000792524141642121864_" gradientUnits="userSpaceOnUse" x1="197.84" y1="260.6431" x2="197.84" y2="245.5193" gradientTransform="matrix(0.9659 -0.2588 0.2588 0.9659 -19.7417 66.0774)">
				<stop  offset="0" style="stop-color:#737373"/>
				<stop  offset="1" style="stop-color:#000000"/>
			</linearGradient>
			<path style="fill:url(#SVGID_00000157295560057795718810000000792524141642121864_);" d="M145.679,275.93l218.375-58.513
				l3.913,14.605l-218.374,58.513L145.679,275.93z M136.276,294.103l6.658-1.783l-3.913-14.606l-6.658,1.785L136.276,294.103z
				 M122.96,297.671l6.659-1.785l-3.913-14.604l-6.658,1.784L122.96,297.671z M109.645,301.238l6.658-1.785l-3.914-14.603
				l-6.658,1.784L109.645,301.238z"/>
			<path d="M109.909,275.077l-6.849,1.822c-6.277-23.604-7.679-41.312-4.411-55.731c4.152-18.317,15.719-31.216,35.364-39.435
				c47.863-20.022,42.191-49.892,35.221-76.471l6.855-1.798c7.29,27.799,13.838,62.561-39.341,84.808
				c-17.377,7.27-27.579,18.542-31.187,34.463C102.556,235.994,103.938,252.625,109.909,275.077z M152.429,193.854
				c39.781-16.642,48.877-48.247,36.896-93.936l-6.855,1.798c11.098,42.323,3.741,70.323-32.776,85.599
				c-42.173,17.644-44.046,46.001-33.399,86.038l6.849-1.822C112.99,233.348,114.648,209.66,152.429,193.854z M168.11,199.436
				c52.122-21.805,42.089-73.932,34.451-103.063l-6.856,1.797c8.618,32.867,14.484,75.98-30.33,94.728
				c-21.253,8.892-32.501,17.772-37.61,29.694c-4.73,11.036-4.218,24.716,1.766,47.216l6.85-1.822
				C126.455,230.664,129.649,215.525,168.11,199.436z"/>
		</g>
	</g>
</g>
<g id="Layer_2">
	<path style="fill:#F70000;" d="M225,23C113.617,23,23,113.617,23,225s90.617,202,202,202s202-90.617,202-202S336.383,23,225,23z
		 M390.014,225c0,38.847-13.501,74.594-36.046,102.815L122.185,96.031C150.407,73.486,186.154,59.986,225,59.986
		C315.988,59.986,390.014,134.011,390.014,225z M59.986,225c0-38.846,13.5-74.594,36.046-102.815l231.784,231.783
		c-28.222,22.545-63.97,36.046-102.815,36.046C134.012,390.014,59.986,315.989,59.986,225z"/>
	
		<linearGradient id="SVGID_00000181788495735579640570000001323194319162837152_" gradientUnits="userSpaceOnUse" x1="225" y1="247.0905" x2="225" y2="25">
		<stop  offset="0" style="stop-color:#D9D9D9"/>
		<stop  offset="1" style="stop-color:#9E9E9E"/>
	</linearGradient>
	<path style="fill:url(#SVGID_00000181788495735579640570000001323194319162837152_);" d="M221.173,244.497L97.985,121.311
		c-1.171-1.171-2.434-1.73-2.819-1.248l-0.698,0.873C70.602,150.813,57.986,186.798,57.986,225c0,3.404,0.109,6.865,0.325,10.339
		c0.103,1.653-1.123,2.857-2.771,2.688c-9.117-0.933-18.27-1.945-27.322-3.022c-1.646-0.196-3.045-1.699-3.102-3.355
		C25.039,229.388,25,227.163,25,225c0-110.28,89.72-200,200-200s200,89.72,200,200c0,2.093-0.036,4.235-0.107,6.407
		c-0.054,1.656-1.453,3.16-3.099,3.357c-9.042,1.079-18.191,2.096-27.313,3.036c-1.647,0.17-2.877-1.035-2.776-2.689
		c0.205-3.385,0.309-6.768,0.309-10.111c0-92.092-74.922-167.014-167.014-167.014c-38.202,0-74.186,12.616-104.063,36.483
		c0,0-0.391,0.313-0.873,0.698c-0.482,0.385,0.076,1.648,1.247,2.819l145.881,145.883c1.171,1.171,0.777,2.135-0.879,2.201
		c-13.814,0.556-26.48,1.649-40.313,0.549C223.469,246.417,222.345,245.668,221.173,244.497z"/>
</g>
</svg>
